<?xml version="1.0" encoding="utf-8"?>
<!-- Generator: Adobe Illustrator 24.1.3, SVG Export Plug-In . SVG Version: 6.00 Build 0)  -->
<svg version="1.1" id="Layer_1" xmlns="http://www.w3.org/2000/svg" xmlns:xlink="http://www.w3.org/1999/xlink" x="0px" y="0px"
	 viewBox="0 0 323 408.3" style="enable-background:new 0 0 323 408.3;" xml:space="preserve">
<style type="text/css">
	.st0{clip-path:url(#SVGID_2_);}
	.st1{fill:#F2F3F5;}
	.st2{fill:#E9EBEE;}
	.st3{fill:#119FEF;}
	.st4{fill:#FFFFFF;stroke:#777777;stroke-width:8.000000e-02;stroke-miterlimit:10;}
	.st5{fill:#FFFFFF;stroke:#777777;stroke-width:8.006368e-02;stroke-miterlimit:10.008;}
	.st6{fill:#BBBBBB;}
	.st7{fill:none;stroke:#777777;stroke-width:0.25;stroke-miterlimit:10.0016;}
	.st8{fill:#3D427A;}
	.st9{fill:none;stroke:#777777;stroke-width:8.001397e-02;stroke-miterlimit:10.0016;}
	.st10{fill:#F7D39C;stroke:#777777;stroke-width:8.000000e-02;stroke-miterlimit:10;}
	.st11{fill:#F7D39C;stroke:#777777;stroke-width:8.001397e-02;stroke-miterlimit:10.0016;}
	.st12{fill:#FFFFFF;stroke:#777777;stroke-width:8.001397e-02;stroke-miterlimit:10.0016;}
	.st13{fill:#FADAB4;}
	.st14{fill:none;stroke:#777777;stroke-width:8.000000e-02;stroke-miterlimit:10;}
	.st15{fill:#2B2B2B;}
	.st16{fill:none;stroke:#2B2B2B;stroke-width:8.000000e-02;stroke-miterlimit:10;}
	.st17{fill:#5E5E5E;}
	.st18{fill:#302624;}
	.st19{fill:#FADAB4;stroke:#777777;stroke-width:8.000000e-02;stroke-miterlimit:10;}
	.st20{fill:#3E3E3E;}
	.st21{fill:none;stroke:#777777;stroke-width:0.81;stroke-linecap:round;stroke-linejoin:round;}
	.st22{fill:#007AA2;}
	.st23{fill:#1C1C1C;}
	.st24{fill:#808080;}
	.st25{fill:#FFFFFF;stroke:#777777;stroke-width:0.21;stroke-miterlimit:10;}
	.st26{fill:#FFFFFF;stroke:#777777;stroke-width:0.21;stroke-miterlimit:9.9995;}
	.st27{fill:#FFFFFF;stroke:#777777;stroke-width:8.000000e-02;stroke-linecap:round;stroke-linejoin:round;}
	.st28{fill:#334047;}
	.st29{fill:#FFFFFF;stroke:#2B2B2B;stroke-width:8.000000e-02;stroke-miterlimit:10;}
	.st30{fill:#177F75;}
	.st31{fill:#575757;}
	.st32{fill:none;stroke:#474747;stroke-width:8.000000e-02;stroke-miterlimit:10;}
	.st33{fill:#554340;}
	.st34{fill:#EEECED;stroke:#777777;stroke-width:8.000000e-02;stroke-linecap:round;stroke-linejoin:round;}
	.st35{fill:#2D383F;}
	.st36{fill:#3C4B54;}
	.st37{fill:#2E2E2E;}
	.st38{fill:#1F1F1F;}
	.st39{fill:#3D3D3D;}
	.st40{fill:#383838;}
	.st41{fill:#595959;}
	.st42{fill:#C77D43;}
	.st43{fill:none;stroke:#3F3F3F;stroke-width:8.000000e-02;stroke-linecap:round;stroke-linejoin:round;}
	.st44{fill:#473431;}
	.st45{fill:#3E3E3E;stroke:#3E3E3E;stroke-width:8.000000e-02;stroke-linecap:round;stroke-miterlimit:10;}
	.st46{fill:#D49A6C;}
	.st47{fill:#FFFFFF;stroke:#777777;stroke-width:0.21;stroke-miterlimit:9.9984;}
	.st48{fill:none;stroke:#2B2B2B;stroke-width:8.000000e-02;stroke-linecap:round;stroke-linejoin:round;}
	.st49{fill:#FADAB4;stroke:#777777;stroke-width:8.000000e-02;stroke-linecap:round;stroke-linejoin:round;}
	.st50{fill:#FAFAFA;stroke:#777777;stroke-width:8.000000e-02;stroke-linecap:round;stroke-linejoin:round;}
	.st51{fill:#777777;stroke:#777777;stroke-width:8.000000e-02;stroke-linecap:round;stroke-linejoin:round;}
	.st52{fill:#6E5450;}
	.st53{fill:none;stroke:#464646;stroke-width:8.000000e-02;stroke-linecap:round;stroke-linejoin:round;}
	.st54{fill:#DEDB8E;}
	.st55{fill:none;stroke:#777777;stroke-width:8.000000e-02;stroke-linecap:round;stroke-linejoin:round;}
	.st56{fill:#FFFFFF;stroke:#777777;stroke-width:0.21;stroke-miterlimit:10.0004;}
	.st57{fill:#FFFFFF;stroke:#777777;stroke-width:0.2092;stroke-miterlimit:9.9624;}
	.st58{fill:#FFFFFF;}
	.st59{fill:none;stroke:#777777;stroke-width:0.22;stroke-miterlimit:9.9988;}
	.st60{clip-path:url(#SVGID_4_);}
	.st61{fill:#D86048;}
	.st62{fill:#B8B8B8;stroke:#777777;stroke-width:0.22;stroke-miterlimit:10;}
	.st63{fill:#B8B8B8;stroke:#777777;stroke-width:0.22;stroke-miterlimit:9.9988;}
	.st64{fill:none;stroke:#777777;stroke-width:0.22;stroke-miterlimit:10;}
	.st65{clip-path:url(#SVGID_6_);}
	.st66{fill:none;stroke:#777777;stroke-width:0.22;stroke-miterlimit:10.0012;}
	.st67{clip-path:url(#SVGID_8_);}
	.st68{fill:#B8B8B8;stroke:#777777;stroke-width:0.22;stroke-miterlimit:10.0012;}
	.st69{fill:none;stroke:#777777;stroke-width:0.22;stroke-miterlimit:9.9996;}
	.st70{clip-path:url(#SVGID_10_);}
	.st71{fill:#B8B8B8;stroke:#777777;stroke-width:0.22;stroke-miterlimit:9.9996;}
	.st72{fill:#B8B8B8;stroke:#777777;stroke-width:0.2201;stroke-miterlimit:10.0065;}
	.st73{fill:#FFFFFF;stroke:#777777;stroke-width:9.000000e-02;stroke-linecap:round;stroke-linejoin:round;}
	.st74{fill:#FADAB4;stroke:#777777;stroke-width:9.000000e-02;stroke-miterlimit:10;}
	.st75{fill:#3B3B3B;}
	.st76{fill:none;stroke:#777777;stroke-width:9.000000e-02;stroke-miterlimit:10;}
	.st77{fill:none;stroke:#3F3F3F;stroke-width:9.000000e-02;stroke-linecap:round;stroke-linejoin:round;}
	.st78{fill:#3E3E3E;stroke:#3E3E3E;stroke-width:9.000000e-02;stroke-linecap:round;stroke-miterlimit:10;}
	.st79{fill:#B3B3B3;stroke:#777777;stroke-width:9.000000e-02;stroke-miterlimit:10;}
	.st80{fill:#C47224;}
	.st81{fill:#276B78;}
	.st82{fill:#2F8594;}
	.st83{fill:#F4C7A7;}
	.st84{fill:none;stroke:#777777;stroke-width:0.25;stroke-miterlimit:10;}
	.st85{fill:none;stroke:#777777;stroke-width:0.26;stroke-miterlimit:10;}
	.st86{fill:none;stroke:#3F3F3F;stroke-width:0.39;stroke-linecap:round;stroke-linejoin:round;}
	.st87{fill:#3E3E3E;stroke:#3E3E3E;stroke-width:0.26;stroke-linecap:round;stroke-miterlimit:10;}
	.st88{fill:#FADAB4;stroke:#777777;stroke-width:0.26;stroke-miterlimit:10;}
	.st89{fill:#454545;}
	.st90{fill:none;}
	.st91{fill:#FFFFFF;stroke:#777777;stroke-width:9.000000e-02;stroke-miterlimit:10;}
	.st92{fill:none;stroke:#2B2B2B;stroke-width:9.000000e-02;stroke-miterlimit:10;}
	.st93{fill:#7A605C;}
	.st94{fill:none;stroke:#777777;stroke-width:0.44;stroke-linecap:round;stroke-linejoin:round;}
	.st95{fill:#BABABA;stroke:#777777;stroke-width:9.000000e-02;stroke-linecap:round;stroke-linejoin:round;}
	.st96{fill:#093857;}
	.st97{fill:#326194;}
	.st98{fill:#474747;stroke:#474747;stroke-width:0.1;stroke-linecap:round;stroke-linejoin:round;}
	.st99{fill:#6D7187;stroke:#777777;stroke-width:0.1;stroke-linecap:round;stroke-linejoin:round;}
	.st100{fill:none;stroke:#D4D4D4;stroke-width:0.1;stroke-linecap:round;stroke-linejoin:round;}
	.st101{fill:#386DA6;}
	.st102{fill:#0B4971;}
	.st103{fill:#8AB1C4;}
	.st104{fill:none;stroke:#777777;stroke-width:0.1;stroke-miterlimit:10;}
	.st105{fill:#3E3E3E;stroke:#3E3E3E;stroke-width:0.1;stroke-linecap:round;stroke-miterlimit:10;}
	.st106{fill:none;stroke:#3F3F3F;stroke-width:0.75;stroke-linecap:round;stroke-linejoin:round;}
	.st107{fill:#FFFFFF;stroke:#777777;stroke-width:9.000646e-02;stroke-miterlimit:10.0008;}
	.st108{fill:#665848;}
	.st109{fill:none;stroke:#3F3F3F;stroke-width:0.44;stroke-linecap:round;stroke-linejoin:round;}
	.st110{fill:#9C9389;}
	.st111{fill:none;stroke:#2B2B2B;stroke-width:9.000000e-02;stroke-linecap:round;stroke-linejoin:round;}
	.st112{fill:#FADAB4;stroke:#777777;stroke-width:9.000000e-02;stroke-linecap:round;stroke-linejoin:round;}
	.st113{fill:#FAFAFA;stroke:#777777;stroke-width:9.000000e-02;stroke-linecap:round;stroke-linejoin:round;}
	.st114{fill:#777777;stroke:#777777;stroke-width:9.000000e-02;stroke-linecap:round;stroke-linejoin:round;}
	.st115{fill:none;stroke:#464646;stroke-width:9.000000e-02;stroke-linecap:round;stroke-linejoin:round;}
	.st116{fill:none;stroke:#777777;stroke-width:9.000000e-02;stroke-linecap:round;stroke-linejoin:round;}
	.st117{fill:#FFFFFF;stroke:#777777;stroke-width:0.2;stroke-miterlimit:10;}
	.st118{fill:#FFFFFF;stroke:#777777;stroke-width:0.2;stroke-miterlimit:9.998;}
	.st119{fill:#FFFFFF;stroke:#777777;stroke-width:0.2;stroke-miterlimit:9.9996;}
</style>
<g>
	<g>
		<g>
			<g>
				<g>
					<defs>
						<rect id="SVGID_1_" y="-261.7" width="323" height="670"/>
					</defs>
					<clipPath id="SVGID_2_">
						<use xlink:href="#SVGID_1_"  style="overflow:visible;"/>
					</clipPath>
					<g class="st0">
						<path class="st1" d="M165.7,40.8c142.9,0,258.8,98.6,258.8,220.3S308.6,489.4,165.7,489.4S-93.1,382.7-93.1,261.1
							S22.8,40.8,165.7,40.8z"/>
						<ellipse class="st2" cx="164.8" cy="338.4" rx="258.8" ry="248.8"/>
						<ellipse class="st3" cx="161.5" cy="415.4" rx="258.8" ry="258.8"/>
					</g>
				</g>
			</g>
		</g>
	</g>
</g>
<g id="Layer_2_1_">
	<path class="st4" d="M179.2,134.4l20.9-0.8c1.1,0,2,0.8,2.1,1.9l0,0l0,0l-24.8,1l0,0l0,0C177.2,135.4,178.1,134.5,179.2,134.4z"/>
	<path class="st4" d="M108.3,137.1l20.9-0.8c1.1,0,2,0.8,2.1,1.9l0,0l0,0l-24.8,1l0,0l0,0C106.4,138.1,107.2,137.2,108.3,137.1z"/>
	<path class="st4" d="M126.6,126.2l0.1,2.2h-1.3l-0.1-2.2c0.3-2.1,2.2-3.7,4.3-3.4c1.7,0.2,3.1,1.5,3.4,3.1l0.5,11.8h-1.3l-0.4-11.8
		c-0.3-1.4-1.6-2.3-3-2C127.6,124.2,126.8,125.1,126.6,126.2L126.6,126.2z"/>
	
		<rect x="124.7" y="128.3" transform="matrix(0.9992 -3.996820e-02 3.996820e-02 0.9992 -5.0357 5.1147)" class="st5" width="1.4" height="0.4"/>
	
		<rect x="156.4" y="124.1" transform="matrix(0.9993 -3.855548e-02 3.855548e-02 0.9993 -4.6915 6.1366)" class="st6" width="0.7" height="1.2"/>
	
		<rect x="156.4" y="124.1" transform="matrix(0.9993 -3.855548e-02 3.855548e-02 0.9993 -4.6915 6.1366)" class="st7" width="0.7" height="1.2"/>
	
		<rect x="155.9" y="123.6" transform="matrix(0.9993 -3.855548e-02 3.855548e-02 0.9993 -4.6627 6.1341)" class="st6" width="1.6" height="0.7"/>
	
		<rect x="155.9" y="123.6" transform="matrix(0.9993 -3.855548e-02 3.855548e-02 0.9993 -4.6627 6.1341)" class="st7" width="1.6" height="0.7"/>
	
		<rect x="153" y="123.7" transform="matrix(0.9993 -3.855548e-02 3.855548e-02 0.9993 -4.6585 6.0491)" class="st6" width="3" height="0.2"/>
	
		<rect x="153" y="123.7" transform="matrix(0.9993 -3.855548e-02 3.855548e-02 0.9993 -4.6585 6.0491)" class="st7" width="3" height="0.2"/>
	<path class="st8" d="M156.2,125.9h1.3c0.8,0.7,1.4,1.6,1.8,2.6l0.3,7.8c0,0.3-0.2,0.5-0.5,0.5l0,0l-3.5,0.1c-0.3,0-0.5-0.2-0.6-0.5
		l0,0l-0.3-7.8C154.6,127.8,155.7,126.3,156.2,125.9z"/>
	
		<rect x="156.1" y="125.1" transform="matrix(0.9993 -3.855548e-02 3.855548e-02 0.9993 -4.7223 6.1391)" class="st8" width="1.4" height="0.8"/>
	
		<rect x="156.1" y="125.1" transform="matrix(0.9993 -3.855548e-02 3.855548e-02 0.9993 -4.7223 6.1391)" class="st8" width="1.4" height="0.8"/>
	
		<rect x="140.8" y="124.7" transform="matrix(0.9993 -3.855548e-02 3.855548e-02 0.9993 -4.7263 5.5355)" class="st6" width="0.7" height="1.2"/>
	
		<rect x="140.8" y="124.7" transform="matrix(0.9993 -3.855548e-02 3.855548e-02 0.9993 -4.7263 5.5355)" class="st9" width="0.7" height="1.2"/>
	
		<rect x="140.3" y="124.2" transform="matrix(0.9993 -3.855548e-02 3.855548e-02 0.9993 -4.6974 5.533)" class="st6" width="1.6" height="0.7"/>
	
		<rect x="140.3" y="124.2" transform="matrix(0.9993 -3.855548e-02 3.855548e-02 0.9993 -4.6974 5.533)" class="st9" width="1.6" height="0.7"/>
	
		<rect x="137.3" y="124.3" transform="matrix(0.9993 -3.855548e-02 3.855548e-02 0.9993 -4.6933 5.4442)" class="st6" width="3" height="0.2"/>
	
		<rect x="137.3" y="124.3" transform="matrix(0.9993 -3.855548e-02 3.855548e-02 0.9993 -4.6933 5.4442)" class="st9" width="3" height="0.2"/>
	<path class="st10" d="M140.5,126.5h1.3c0.8,0.7,1.4,1.6,1.8,2.6l0.3,7.8c0,0.3-0.2,0.5-0.5,0.5l0,0l-3.5,0.1
		c-0.3,0-0.5-0.2-0.6-0.5l0,0l-0.3-7.8C138.9,128.4,140.1,127,140.5,126.5z"/>
	
		<rect x="140.5" y="125.7" transform="matrix(0.9993 -3.855548e-02 3.855548e-02 0.9993 -4.7571 5.538)" class="st11" width="1.4" height="0.8"/>
	
		<rect x="140.5" y="125.7" transform="matrix(0.9993 -3.855548e-02 3.855548e-02 0.9993 -4.7571 5.538)" class="st11" width="1.4" height="0.8"/>
	<path class="st4" d="M179.9,124.1l0.1,2.2h1.3l-0.1-2.2c-0.4-2.1-2.5-3.5-4.6-3.1c-1.7,0.3-2.9,1.7-3.1,3.4l0.4,11.8h1.3l-0.4-11.9
		c0.2-1.4,1.5-2.4,2.9-2.2C178.8,122.2,179.7,123,179.9,124.1L179.9,124.1z"/>
	
		<rect x="180" y="126.3" transform="matrix(0.9993 -3.855548e-02 3.855548e-02 0.9993 -4.7431 7.0613)" class="st12" width="1.4" height="0.4"/>
	<path class="st13" d="M211.4,133.1c0,0,1.1,2.9,0.1,3.5s-1.4-2.2-1.4-2.2s0.1,1.1-0.2,1.2s-0.4-2.3-0.4-2.3L211.4,133.1z"/>
	<path class="st14" d="M211.4,133.1c0,0,1.1,2.9,0.1,3.5s-1.4-2.2-1.4-2.2s0.1,1.1-0.2,1.2s-0.4-2.3-0.4-2.3L211.4,133.1z"/>
	<path class="st4" d="M208.8,133.5c0.9,0.5,2.1,0.6,3.1,0.1l0.5-16.7c-0.1-0.8-0.8-1.5-1.6-1.5l-1.5-0.1L208.8,133.5z"/>
	<path class="st13" d="M185.6,122.1c0,0-3.4,0.4-4.1-0.5s2.7-0.8,2.7-0.8s-1.3-0.1-1.4-0.3s2.6,0.1,2.6,0.1L185.6,122.1z"/>
	<path class="st14" d="M185.6,122.1c0,0-3.4,0.4-4.1-0.5s2.7-0.8,2.7-0.8s-1.3-0.1-1.4-0.3s2.6,0.1,2.6,0.1L185.6,122.1z"/>
	<path class="st4" d="M193.3,121.5l1.5-5.1c0.8-2.1,1.6-3.2,3-2.8c1,0.4,1.6,1.1,1.4,1.5l-3.3,8.6c-0.5,0.8-1.5,1.1-2.4,0.8
		l-8.4-2.1c-0.5-0.3-0.7-1-0.4-1.5c0.2-0.3,0.4-0.5,0.7-0.5L193.3,121.5z"/>
	<path class="st15" d="M189.4,158.5l6.2,0.9c0.2-0.5,0.3-0.9,0.2-1.4l-2.7-0.4c0,0-3.7-1.2-3.7,0.7V158.5z"/>
	<path class="st16" d="M189.4,158.5l6.2,0.9c0.2-0.5,0.3-0.9,0.2-1.4l-2.7-0.4c0,0-3.7-1.2-3.7,0.7V158.5z"/>
	<path class="st15" d="M189.4,158.5l6.2,0.9l0.1-0.4l-6.2-0.9c0,0-0.1,0-0.1,0.1l0,0V158.5z"/>
	<path class="st16" d="M189.4,158.5l6.2,0.9l0.1-0.4l-6.2-0.9c0,0-0.1,0-0.1,0.1l0,0V158.5z"/>
	<path class="st15" d="M206.4,161l-6.2-0.9c-0.1-0.5,0-1,0.2-1.4l2.7,0.4C203.1,159.1,207,159,206.4,161L206.4,161z"/>
	<path class="st16" d="M206.4,161l-6.2-0.9c-0.1-0.5,0-1,0.2-1.4l2.7,0.4C203.1,159.1,207,159,206.4,161L206.4,161z"/>
	<path class="st15" d="M206.4,161l-6.2-0.9v-0.4l6.2,0.9c0.1,0,0.1,0.1,0.1,0.1l0,0L206.4,161z"/>
	<path class="st16" d="M206.4,161l-6.2-0.9v-0.4l6.2,0.9c0.1,0,0.1,0.1,0.1,0.1l0,0L206.4,161z"/>
	<path class="st17" d="M208,131.4c-1.4,9.2-3.2,19.5-5.3,27.7c-0.8,0.1-1.6,0-2.3-0.4c0.4-7.5,0.9-18,1.6-25.2
		c0-0.2-0.1-0.4-0.3-0.4l0,0c-0.2,0-0.4,0.1-0.4,0.3c-1,5.9-3.3,16.5-5.4,24.6c-0.8,0.1-1.6,0-2.3-0.3c0.7-8.7,1.5-19.1,2.8-28
		C196.5,127.6,208.3,129.4,208,131.4z"/>
	<path class="st4" d="M210.2,119.3l1.6-3.7c-1.7-0.6-3.3-1.4-4.8-2.4l-4.2-0.6c-1.8,0.1-3.6,0.4-5.4,0.9l0.1,3.4
		c-0.4,6,0,9.5-1.2,12.8c3.8,1.3,7.8,1.9,11.8,1.8C208,126.5,209.3,124.8,210.2,119.3z"/>
	<path class="st18" d="M201,104c-0.4-0.7,0.8-4.3,5.8-3.1c-0.3,0-0.7,0.1-1,0.2c1.5-0.3,3.1,0.4,3.9,1.7c1.1,0.6,0.9,2.1,0.3,3.7
		c-0.6,1.4-1.6,2.6-2.7,3.6C205.7,107.9,201,104,201,104z"/>
	<path class="st19" d="M206.5,110l0.4,3.3c-1.7,1.1-4,0.7-5.3-0.9c0.2-0.5,1.3-2.4,1.3-2.4H206.5z"/>
	<path class="st19" d="M201,103.8c-0.5,1.6-0.8,3.2-0.9,4.8c0.2,1.1,0.8,2,1.5,2.8c0.7,0.4,1.5,0.6,2.3,0.5c0.9-0.2,3.4-1.7,3.6-2.1
		l0.3-1.3c1.2,0.3,1.6-3.1-0.3-1.3c0-0.5-0.2-2-0.2-2C205,105.6,202,103.3,201,103.8z"/>
	<path class="st20" d="M201.9,105.9c-0.1,0.2-0.2,0.3-0.4,0.2c-0.2,0-0.3-0.2-0.3-0.4l0,0c0.1-0.2,0.2-0.3,0.4-0.2
		C201.8,105.5,202,105.7,201.9,105.9L201.9,105.9z"/>
	<path class="st20" d="M205.1,106.5c-0.1,0.2-0.2,0.3-0.4,0.2c-0.2,0-0.3-0.2-0.3-0.4l0,0c0.1-0.2,0.2-0.3,0.4-0.2
		C205,106.2,205.1,106.3,205.1,106.5L205.1,106.5z"/>
	<path class="st21" d="M202.8,107.1c-0.1,0.4-0.9,0.6-0.2,0.9"/>
	<path class="st21" d="M201.7,109.2c0.4,0.6,1.1,0.7,1.7,0.4"/>
	<path class="st4" d="M206.9,112.9l0.6,0.8c-0.8,1-1.9,1.7-3.1,2.1l-0.3-1.8C205.2,113.9,206.2,113.6,206.9,112.9z"/>
	<path class="st4" d="M201.8,112.1l-0.8,0.5c0.5,1.2,1.3,2.2,2.3,2.9l0.8-1.7C203.2,113.6,202.3,113,201.8,112.1z"/>
	<path class="st18" d="M202.3,108.3c0.7-0.3,1.5-0.1,1.9,0.6c0.7,1.1,1.3,1.2,1.3,1.2S202.4,109.8,202.3,108.3z"/>
	<path class="st18" d="M202.3,108.3c0,0-0.9-0.7-1.6-0.3c-0.2,0.1-0.6,0.7-0.8,0.6S201.5,109.6,202.3,108.3z"/>
	<path class="st14" d="M204.1,113.9c0,0-3.1,15.3-2.5,16.9"/>
	<path class="st22" d="M208.6,126c-0.2,0.3-0.6,0.5-1,0.5l0,0c0.7-6.2,1.4-12,1.4-12l-1-0.5c0,0-1.6,4.3-2.6,4.9l-2-0.3h-0.2l-2-0.3
		c-0.8-0.9-1-5.4-1-5.4l-1.1,0.2c0,0-4.6,24.8-4.8,27c1,1.1,4.9,1.3,5.6,1.4c0.6,0.2,4.5,1.1,5.7,0.3c0.2-1,0.9-7,1.7-13.1l0.9-0.5
		C208.5,127.5,208.6,126.7,208.6,126z"/>
	<path class="st17" d="M117.6,127.5l6-0.9c2.6-0.4,5,0.9,5.6,3l2.6,9.2c0.7,2.4-1.4,4.9-4.4,5.3l-8.5,1.2c-3,0.4-5.7-1.4-5.7-3.9
		l-0.1-9.6C113,129.8,115,127.9,117.6,127.5z"/>
	<path class="st23" d="M131.5,141.5l0.2,1.3c0.1,0.8-0.6,1.6-1.4,1.6H130l0.1,1.1l1.5-0.2c0.9-0.1,1.5-0.8,1.4-1.6l-0.3-2.4
		L131.5,141.5z"/>
	<path class="st23" d="M114.1,144l0.2,1.3c0.2,0.8,1,1.4,1.8,1.2h0.3l0.2,1.1l-1.5,0.2c-0.8,0.2-1.7-0.3-1.8-1.2l-0.3-2.4L114.1,144
		z"/>
	<path class="st24" d="M130.4,141.7l3.4-0.5l-0.4-3c-0.1-0.7-0.8-1.1-1.5-1l0,0l-0.5,0.1c-0.8,0.1-1.4,0.7-1.3,1.5L130.4,141.7z"/>
	<path class="st24" d="M111.9,144.3l3.3-0.5l-0.4-3c-0.1-0.7-0.8-1.1-1.5-1l0,0l-0.5,0.1c-0.8,0-1.3,0.7-1.3,1.5l0,0L111.9,144.3z"
		/>
	<path class="st23" d="M130.4,157.7c0,0-3.7,0.4-3.9-0.9l-1.5-10.5l-3.4,0.5l1.5,10.5c0.2,1.3-3.4,2-3.4,2c-0.3,0-0.6,0.3-0.6,0.6
		v0.3l12-1.7v-0.3C131.1,157.9,130.8,157.6,130.4,157.7C130.5,157.7,130.4,157.7,130.4,157.7z"/>
	<path class="st25" d="M130.4,146.6l-13.7,2c-0.8,0.1-1.5-0.4-1.6-1.2l0,0c-0.1-0.8,0.4-1.5,1.2-1.6l13.7-2c0.8-0.1,1.5,0.4,1.6,1.2
		l0,0C131.7,145.8,131.1,146.5,130.4,146.6z"/>
	<path class="st24" d="M115.1,147.7l16.5-2.4l-0.3-1.9c-0.1-0.5-0.6-0.9-1.2-0.8c0,0,0,0-0.1,0l-14.3,2.1c-0.6,0-1,0.4-1,1v0.1
		L115.1,147.7z"/>
	
		<rect x="118.3" y="159.6" transform="matrix(0.9902 -0.14 0.14 0.9902 -21.1754 18.9847)" class="st26" width="12.1" height="0.8"/>
	<path class="st27" d="M113.5,126.6l-2.3,1.8l-9.3-4.8c-0.8-0.2-1.3-1.1-1.1-2c0-0.1,0.1-0.2,0.1-0.2l0,0c0.5-0.9,1.6-1.3,2.6-0.9
		L113.5,126.6z"/>
	<path class="st13" d="M118.6,121.3c0.8-1.2,3.6-3.5,3-1.9c-0.6,2-1.2,2.4-2,2.9l-6.9,6.2c-0.8,0.5-1.8,0.2-2.2-0.5c0,0,0,0,0-0.1
		l0,0c-0.5-0.8,0-1.6,1-2L118.6,121.3z"/>
	<path class="st14" d="M118.6,121.3c0.8-1.2,3.6-3.5,3-1.9c-0.6,2-1.2,2.4-2,2.9l-6.9,6.2c-0.8,0.5-1.8,0.2-2.2-0.5c0,0,0,0,0-0.1
		l0,0c-0.5-0.8,0-1.6,1-2L118.6,121.3z"/>
	<path class="st13" d="M130.2,135.3L130.2,135.3c0.7-0.1,1.2-0.8,1-1.5v-0.1l-1.4-4.1c-0.3-0.7-1.1-1-1.8-0.8l0,0
		c-0.7,0.1-1.2,0.8-1,1.5v0.1l1.4,4.1C128.7,135.2,129.5,135.6,130.2,135.3z"/>
	<path class="st14" d="M130.2,135.3L130.2,135.3c0.7-0.1,1.2-0.8,1-1.5v-0.1l-1.4-4.1c-0.3-0.7-1.1-1-1.8-0.8l0,0
		c-0.7,0.1-1.2,0.8-1,1.5v0.1l1.4,4.1C128.7,135.2,129.5,135.6,130.2,135.3z"/>
	<path class="st28" d="M129,143.7c-0.1-1.5-0.3-2.5-1.1-3.2c-0.3-0.2-1-0.6-1.1-0.9l-8.2,1.2c0.1,0.3-0.7,0.8-0.7,1.1
		c-0.1,1.1,0,2.3,0.2,3.4L129,143.7z"/>
	<path class="st29" d="M118.4,141.7c3.1,0.4,5.9-0.2,9.2-1l-2.3-15.7l-8.9,1.3L118.4,141.7z"/>
	<path class="st30" d="M122.8,126.9c0-0.1,0.2-0.2,0.2-0.3c0.8-0.5,0.6-1.6,0.4-2.1l3.2,0.3l0.6,4.4c0.1,5,0,9,1.2,12
		c-1.8,0.7-3.7,1.1-5.6,1.2C120.6,135.1,124.9,135.8,122.8,126.9z"/>
	<path class="st30" d="M115.7,130.6l-0.7-4.2l3.1-1l0.3,0.9c-0.1,0.4,0.1,0.9,0.4,1.2c-0.4,5.6,4.5,7.8,4.6,14.9
		c-1.8,0.2-3.7,0.3-5.5,0.2C118.3,140,116.4,135.2,115.7,130.6L115.7,130.6z"/>
	<path class="st13" d="M123.4,124.4h0.6c-1.8,2.8-4.6,2.9-6.2,0.9c0.3,0,0.5-0.1,0.8-0.3c0.6-2.5,0.7-2.8,0.6-3.7l3-0.4
		C122.2,121.9,122,122.3,123.4,124.4z"/>
	<path class="st14" d="M123.4,124.4h0.6c-1.8,2.8-4.6,2.9-6.2,0.9c0.3,0,0.5-0.1,0.8-0.3c0.6-2.5,0.7-2.8,0.6-3.7l3-0.4
		C122.2,121.9,122,122.3,123.4,124.4z"/>
	<ellipse class="st31" cx="122.5" cy="140.1" rx="0.2" ry="0.2"/>
	<path class="st31" d="M121.8,137.7c0,0.1,0.1,0.2,0.3,0.2c0.1,0,0.2-0.1,0.2-0.2l0,0c0-0.1-0.1-0.2-0.3-0.2
		C121.8,137.5,121.7,137.6,121.8,137.7L121.8,137.7z"/>
	<ellipse class="st31" cx="121.4" cy="137" rx="0.2" ry="0.2"/>
	<path class="st31" d="M120,134.5c0,0.1,0.1,0.2,0.2,0.2l0,0c0.1,0,0.2-0.1,0.2-0.2c0-0.1-0.1-0.2-0.3-0.2l0,0
		C120.1,134.2,120,134.3,120,134.5L120,134.5z"/>
	<path class="st31" d="M118.9,131.9c0,0.1,0.1,0.2,0.3,0.2l0,0c0.1,0,0.2-0.1,0.2-0.2c0-0.1-0.1-0.2-0.3-0.2
		C118.9,131.7,118.9,131.8,118.9,131.9z"/>
	<path class="st31" d="M118.3,129.2c0,0.1,0.1,0.2,0.3,0.2c0.1,0,0.2-0.1,0.2-0.2c0-0.1-0.1-0.2-0.3-0.2
		C118.4,129,118.3,129.1,118.3,129.2z"/>
	<path class="st32" d="M118.3,129.2c0,0.1,0.1,0.2,0.3,0.2c0.1,0,0.2-0.1,0.2-0.2c0-0.1-0.1-0.2-0.3-0.2
		C118.4,129,118.3,129.1,118.3,129.2z"/>
	<path class="st30" d="M128,125.5c-0.3-0.7-1.1-1-1.8-0.8h0.1l0.1,4.4v0.3c0.4,1.4,0.9,2.7,1.5,3.9c0.7,0.6,2.6,0,2.8-0.7
		C130.2,130.1,129.3,127.7,128,125.5z"/>
	<polygon class="st30" points="126.4,124.7 126.3,129.6 127.6,128.3 127.6,125 126.8,124.7 	"/>
	<path class="st30" d="M115.4,126.2c0.2,1.8,0.9,3.5,1.8,5.1l-2-1.2l-0.8-3.2l0.6-0.5L115.4,126.2z"/>
	<path class="st33" d="M124,117.5c0.3,2.1-1.1,4.1-3.3,4.6l-0.3,0.1c-2.3,0.2-4.2-1.4-4.5-3.7c-0.1-0.4-0.2-0.9-0.1-1.3
		c0-0.8,0.2-1.6,0.7-2.2c0.8-0.9,1.8-1.4,3-1.5h0.4C122.7,113.2,123.7,114.4,124,117.5z"/>
	<path class="st33" d="M123.6,118.6L123.6,118.6c-0.2,0-0.3-0.6-0.3-0.8l-0.8-2.9c0-0.2,0.2-0.4,0.4-0.4h0.2c0.2,0,0.4,0.1,0.5,0.3
		l0,0c0.3,1.1,0.4,2.3,0.3,3.4C124,118.5,123.8,118.6,123.6,118.6z"/>
	<path class="st22" d="M123.4,124.4l-5,0.7l-3.2,0.9c-1.5,0.8-2,2.5-2.2,4.3l1.2,15.7c1-0.4,2.2,0.8,3,0.3c3.6-2.1,9.8-4,13.1-2.1
		c0.8,0.4,2.4-0.5,3.3-1l-4.3-15.5c-0.7-1.6-0.9-2.7-2.6-3L123.4,124.4z"/>
	<path class="st34" d="M122.7,123.3l0.7,1.1c-1.4,1.1-3.3,1.4-5,0.7l0.5-1.2C120.1,124.4,121.6,124.2,122.7,123.3z"/>
	<path class="st13" d="M123.7,120.3c-0.1,0.6-0.2,1.2-0.5,1.7c-0.5,1.1-1.4,1.9-2.6,2.2c-1.3,0-2.5-0.6-3.1-1.7
		c-0.4-0.5-0.7-1-0.8-1.6c-1-0.1-1.3-2.2-0.2-1.1c-0.1-0.6-0.4-2,0.1-2c4.7,0,5.6-1.7,6.2-1c0.4,0.5,1.2,1.4,0.9,2
		C124.8,117.5,124.6,120,123.7,120.3z"/>
	<path class="st14" d="M123.7,120.3c-0.1,0.6-0.2,1.2-0.5,1.7c-0.5,1.1-1.4,1.9-2.6,2.2c-1.3,0-2.5-0.6-3.1-1.7
		c-0.4-0.5-0.7-1-0.8-1.6c-1-0.1-1.3-2.2-0.2-1.1c-0.1-0.6-0.4-2,0.1-2c4.7,0,5.6-1.7,6.2-1c0.4,0.5,1.2,1.4,0.9,2
		C124.8,117.5,124.6,120,123.7,120.3z"/>
	<path class="st20" d="M118.7,119.5c0,0.2-0.1,0.3-0.3,0.3c-0.2,0-0.3-0.1-0.4-0.2c0-0.2,0.2-0.3,0.4-0.3
		C118.5,119.2,118.6,119.3,118.7,119.5L118.7,119.5z"/>
	<path class="st20" d="M121.9,119.1c0,0.2-0.1,0.3-0.3,0.3l0,0c-0.2,0-0.3-0.1-0.4-0.2c0-0.2,0.1-0.3,0.3-0.3
		C121.7,118.8,121.8,118.9,121.9,119.1L121.9,119.1z"/>
	<path class="st21" d="M120.2,120.3c0,0-0.7,1,0.1,0.8"/>
	<path class="st21" d="M119.6,122.4c0.5,0.3,1.2,0.2,1.6-0.2"/>
	<path class="st35" d="M134.3,158.8l-6.5,0.9c-0.2-0.5-0.3-1-0.2-1.5l2.8-0.4c0,0,3.9-1.2,3.9,0.8V158.8z"/>
	<path class="st15" d="M134.3,158.8l-6.5,0.9l-0.2-0.4l6.5-0.9c0.1,0,0.1,0,0.1,0.1l0,0L134.3,158.8z"/>
	<path class="st35" d="M117.2,161.3l6.5-0.9c0.1-0.5,0-1-0.2-1.5l-2.8,0.4c0,0-4-0.1-3.5,1.8V161.3z"/>
	<path class="st15" d="M117.2,161.3l6.5-0.9v-0.5l-6.5,0.9c-0.1,0-0.1,0.1-0.1,0.1l0,0L117.2,161.3z"/>
	<path class="st36" d="M129.4,143.7c0.4,4.9,0.2,8.2,0.3,14.3c-0.7,0.3-1.4,0.4-2.1,0.3c-1.1-5.3-1.8-8.1-2.8-13.9
		C124.3,140.7,129.2,140.5,129.4,143.7z"/>
	<path class="st36" d="M117.7,145.4c1,4.8,2.1,7.9,3.7,13.7c0.7,0.1,1.4,0,2.1-0.2c-0.4-5.4-0.5-8.3-1.2-14.2
		C121.7,141.1,116.9,142.2,117.7,145.4z"/>
	<path class="st37" d="M111.1,162.6l-6.4,1.1c-0.2-0.5-0.3-1-0.2-1.5l2.8-0.5c0,0,3.8-1.3,3.8,0.7L111.1,162.6z"/>
	<path class="st38" d="M111.1,162.6l-6.4,1.1l-0.2-0.4l6.4-1.1c0.1,0,0.1,0,0.1,0.1l0,0L111.1,162.6z"/>
	<path class="st39" d="M97.8,134.2l0.3,3.6c1.8,4.4,1.4,7.6,6.4,24.4c0.9,0.2,1.8,0,2.5-0.5c-1-4.4-2-28.7-1.5-28.7L97.8,134.2z"/>
	<path class="st40" d="M112.2,162.4l-6.4,1.1c-0.2-0.5-0.3-1-0.2-1.5l2.8-0.5c0,0,3.8-1.3,3.8,0.7L112.2,162.4z"/>
	<path class="st15" d="M112.2,162.4l-6.4,1.1l-0.2-0.4l6.4-1.1c0.1,0,0.1,0,0.1,0.1l0,0L112.2,162.4z"/>
	<path class="st41" d="M98,133.3l0.1,3.6c0.1,2.8,2,7,7.5,25.1c0.9,0.2,1.8,0,2.5-0.5c-0.1-1.9-1.3-27.1-1.3-27.1L98,133.3z"/>
	<path class="st27" d="M96.1,116.4c-1.3,0.8-3.1,5.9,1.7,17c0.1,2.4,0.1,3.6,0.1,3.6c3.1,0.1,6.2-0.4,9.1-1.5c0,0-1.6-16.2-5-17.8
		C100.2,116.6,98.1,116.2,96.1,116.4z"/>
	<path class="st42" d="M99.2,113.1c2.9-0.4,4.8-3.8,4.7-6.3c0.7-0.9,0.7-2.5-1.7-2.6c-0.4,0-5.3-0.1-6.2,1.4c-4,3.1,0.7,6.4,0.8,7.5
		C96.9,113.8,98.3,113.2,99.2,113.1z"/>
	<path class="st13" d="M102,117.6c-0.8-1.6-1.4-3.2-1.8-4.9l-3.5-1.2c0.4,2.8,0.4,3.4-0.6,4.9C98,117,100,117.4,102,117.6z"/>
	<path class="st14" d="M102,117.6c-0.8-1.6-1.4-3.2-1.8-4.9l-3.5-1.2c0.4,2.8,0.4,3.4-0.6,4.9C98,117,100,117.4,102,117.6z"/>
	<path class="st13" d="M103.9,106.8c0.4,0.7,0.5,1.5,0.4,2.3c-0.2,0.9,0,1.4,1,2.4c0.1,0.1,0.1,0.2,0,0.3c-0.1,0.2-0.3,0.4-0.6,0.4
		l-0.4,2.2c0,0.6-0.6,0.9-1.3,0.9c-1.4-0.1-2.8-0.4-4.1-0.9c-0.9-0.4-1.3-0.7-1.1-2.3c-1.8-0.3-1.7-3.8-0.1-2.1
		c0.1,0.1,0.8-3.3-0.1-2.7C98.7,106.6,100.2,106,103.9,106.8z"/>
	<path class="st14" d="M103.9,106.8c0.4,0.7,0.5,1.5,0.4,2.3c-0.2,0.9,0,1.4,1,2.4c0.1,0.1,0.1,0.2,0,0.3c-0.1,0.2-0.3,0.4-0.6,0.4
		l-0.4,2.2c0,0.6-0.6,0.9-1.3,0.9c-1.4-0.1-2.8-0.4-4.1-0.9c-0.9-0.4-1.3-0.7-1.1-2.3c-1.8-0.3-1.7-3.8-0.1-2.1
		c0.1,0.1,0.8-3.3-0.1-2.7C98.7,106.6,100.2,106,103.9,106.8z"/>
	<path class="st43" d="M103.3,113c0.3,0.3,0.8,0.4,1.2,0.2"/>
	<path class="st44" d="M103.1,109c-0.4,0-0.7,0.1-1,0.3c-0.1-0.1-0.1-0.2-0.1-0.3c0.3-0.2,0.6-0.3,1-0.3
		C103.1,108.8,103.1,108.9,103.1,109z"/>
	<path class="st45" d="M103,110c0,0.1,0.1,0.2,0.3,0.2l0,0c0.1,0,0.3-0.1,0.3-0.3c0-0.1-0.1-0.3-0.3-0.2l0,0
		C103.1,109.8,103,109.9,103,110z"/>
	<path class="st42" d="M99.2,110.4c0,0,0.1,1.3,0.2,1.8c0.1,0.3,0.2,0.5,0.4,0.8c0.8,0.4,1.8,0.4,2.6,0.1c0.6-0.7,1.5-1.1,2.4-1
		c0.2,0.3,0.1,0.7-0.2,1l-0.1,1.5c0.1,0.6-0.4,1.2-1.1,1.3h-0.1c-0.7,0-2.1-0.8-3-1s-2.4-0.8-2.2-1.4
		C98.3,112.4,98.7,111.4,99.2,110.4z"/>
	<path class="st19" d="M104.6,113.1c0,0,0.2,0.2,0,0.4s-0.8-0.1-0.8-0.1L104.6,113.1z"/>
	<path class="st27" d="M96.6,115.5l-1,1.2c2,0.8,4,1.5,6.1,2l0.3-1C100.3,116.7,98.5,116,96.6,115.5z"/>
	<path class="st22" d="M95.6,116.9l5.3,3.4l1.8,9.4c0,0-4.9,1.6-6.1,0.8c-0.1,0.4,0.6,1.6,0.6,1.6c1.9,0.2,3.8,0.1,5.6-0.5
		c0,0,2.7,11.4,2.1,12.2c2.3,0.4,2.6,0.1,2.6,0.1s-1.2-20-3.3-22.5c-0.9-0.9-1.9-1.6-3-2.3L95.6,116.9z"/>
	<path class="st27" d="M106.5,124l-2.9,2.5l-7.4-4.9c-0.7-0.4-1-1.4-0.5-2.1c0.1-0.1,0.1-0.2,0.2-0.3l0,0c0.7-0.8,1.9-0.9,2.8-0.4
		L106.5,124z"/>
	<path class="st13" d="M110.9,117c0-1.4,0.4-2,0.7-0.5c0,0.2,1.7-3.5,3-2.3c1.5,1.4-1,2.2-2.3,3.2l-6.1,8.7
		c-0.5,0.8-1.5,1.1-2.3,0.6l0,0l0,0c-0.7-0.3-0.9-1.2-0.6-1.8c0.1-0.1,0.2-0.3,0.3-0.4L110.9,117z"/>
	<path class="st14" d="M110.9,117c0-1.4,0.4-2,0.7-0.5c0,0.2,1.7-3.5,3-2.3c1.5,1.4-1,2.2-2.3,3.2l-6.1,8.7
		c-0.5,0.8-1.5,1.1-2.3,0.6l0,0l0,0c-0.7-0.3-0.9-1.2-0.6-1.8c0.1-0.1,0.2-0.3,0.3-0.4L110.9,117z"/>
	<path class="st46" d="M100.8,106.4c0.1,0.6,0.1,1.3,0,1.9c-0.1,0.3-2.8,2.1-3.1,1.7c-1.1-1.2-1.6,0.4-0.8,1.6
		c-0.3-0.1-0.3-0.3,0,1.7c-0.3-0.6-2.8-3.2-2.6-5C94.9,107.9,99.8,106,100.8,106.4z"/>
	<path class="st17" d="M172.5,124.3l6,0.3c2.6,0.1,4.8,1.8,4.9,4l0.8,9.5c0.2,2.5-2.3,4.6-5.3,4.4l-8.6-0.4
		c-3.1-0.1-5.3-2.4-4.9-4.9l1.7-9.4C167.6,125.7,169.9,124.2,172.5,124.3z"/>
	<path class="st23" d="M183.5,140.8l-0.1,1.3c-0.1,0.8-0.9,1.4-1.7,1.4h-0.3v1.1l1.6,0.1c0.8,0.1,1.6-0.5,1.7-1.4l0.1-2.4
		L183.5,140.8z"/>
	<path class="st23" d="M166,139.9v1.3c0,0.9,0.7,1.5,1.6,1.5h0.3v1.1l-1.6-0.1c-0.9,0-1.6-0.6-1.6-1.5l0.1-2.4L166,139.9z"/>
	<path class="st24" d="M182.5,140.7l3.4,0.1l0.1-3c0-0.7-0.6-1.3-1.3-1.3l0,0h-0.5c-0.8-0.1-1.5,0.5-1.6,1.2L182.5,140.7z"/>
	<path class="st24" d="M163.8,139.8l3.4,0.2l0.1-3c0-0.7-0.6-1.3-1.3-1.3h-0.5c-0.8-0.1-1.5,0.5-1.6,1.2L163.8,139.8z"/>
	<path class="st23" d="M179.4,156.4c0,0-3.7-0.3-3.6-1.6l0.5-10.6l-3.5-0.2l-0.5,10.6c-0.1,1.3-3.8,1.3-3.8,1.3
		c-0.3,0-0.6,0.2-0.6,0.5l0,0v0.3l12,0.6V157C180,156.7,179.8,156.4,179.4,156.4z"/>
	<path class="st25" d="M181.5,145.5l-13.9-0.6c-0.8,0-1.4-0.7-1.3-1.5l0,0c0-0.8,0.7-1.4,1.5-1.3l13.9,0.6c0.8,0,1.4,0.7,1.3,1.5
		l0,0C182.9,144.9,182.3,145.5,181.5,145.5z"/>
	<path class="st24" d="M166.3,143.8l16.7,0.8l0.1-1.9c0-0.6-0.4-1-1-1c0,0,0,0-0.1,0l-14.5-0.7c-0.5-0.1-1.1,0.3-1.1,0.8
		c0,0,0,0,0,0.1L166.3,143.8z"/>
	
		<rect x="173.5" y="151.4" transform="matrix(4.606749e-02 -0.9989 0.9989 4.606749e-02 8.6804 323.8988)" class="st47" width="0.8" height="12.1"/>
	<path class="st15" d="M161.8,157.5l-6.1,0.2c-0.1-0.5-0.1-0.9,0-1.4l2.7-0.1c0,0,3.7-0.8,3.5,1.1L161.8,157.5z"/>
	<path class="st48" d="M161.8,157.5l-6.1,0.2c-0.1-0.5-0.1-0.9,0-1.4l2.7-0.1c0,0,3.7-0.8,3.5,1.1L161.8,157.5z"/>
	<path class="st15" d="M161.8,157.5l-6.1,0.2l-0.1-0.4l6.1-0.3c0.1,0,0.1,0,0.1,0.1l0,0V157.5z"/>
	<path class="st48" d="M161.8,157.5l-6.1,0.2l-0.1-0.4l6.1-0.3c0.1,0,0.1,0,0.1,0.1l0,0V157.5z"/>
	<path class="st15" d="M144.9,158.1l6.1-0.2c0.1-0.5,0.1-1-0.1-1.4l-2.7,0.1C148.2,156.6,144.4,156.1,144.9,158.1L144.9,158.1z"/>
	<path class="st48" d="M144.9,158.1l6.1-0.2c0.1-0.5,0.1-1-0.1-1.4l-2.7,0.1C148.2,156.6,144.4,156.1,144.9,158.1L144.9,158.1z"/>
	<path class="st15" d="M144.9,158.1l6.1-0.2l0.1-0.4l-6.1,0.2c0,0-0.1,0-0.1,0.1l0,0V158.1z"/>
	<path class="st48" d="M144.9,158.1l6.1-0.2l0.1-0.4l-6.1,0.2c0,0-0.1,0-0.1,0.1l0,0V158.1z"/>
	<path class="st39" d="M146.8,128c0,0.3-0.5,0.6-0.5,1c0.5,9.1,1.2,19.5,2.3,27.6c0.8,0.2,1.6,0.2,2.3-0.1
		c0.4-7.4,1.1-17.5,1.1-24.6c0-0.2,0.2-0.4,0.4-0.4l0,0c0.2,0,0.4,0.1,0.4,0.4c0.4,5.9,1.4,16.4,2.7,24.5c0.8,0.2,1.6,0.1,2.3-0.1
		c0.2-8.6,0.6-19.1,0.3-27.9c0-0.4-0.7-0.4-0.7-0.7L146.8,128z"/>
	<path class="st49" d="M145.3,132c0.2,0.5,0.3,0.9,0.1,1s-0.3-0.2-0.5-0.5c0,0-0.3,2.3-0.9,2.1s-1.1-1.2-1.1-2.3s0.5-1.8,1.1-1.6
		c0.4,0.1,0.6,0.4,0.8,0.8C145,131.6,145.2,131.8,145.3,132z"/>
	<path class="st50" d="M142.6,122.8c-0.1-0.2-0.1-0.4,0-0.6l1.6-8.6c0.2-0.9,1.1-1.4,2-1.3c0.9,0,1.5,0.8,1.5,1.6v0.1l-1.5,8.3v0.1
		l-1,9.2c-0.7,0.6-1.7,0.4-2.3-0.3c0,0,0,0,0-0.1L142.6,122.8z"/>
	<path class="st49" d="M159.7,131.5c-0.2,0.5-0.2,0.9,0,1s0.3-0.3,0.4-0.6c0,0,0.4,2.2,1,2s1-1.3,0.9-2.4s-0.6-1.8-1.2-1.5
		c-0.3,0.2-0.6,0.5-0.7,0.9C160,131,159.8,131.2,159.7,131.5z"/>
	<path class="st50" d="M161.7,122c0.1-0.2,0.1-0.4,0-0.6l-2.2-8.5c-0.3-0.9-1.2-1.4-2.1-1.1c-0.9,0.1-1.5,0.9-1.3,1.7v0.1l2.2,8.1
		v0.1l1.7,9c0.7,0.5,1.7,0.3,2.2-0.4l0,0L161.7,122z"/>
	<path class="st51" d="M154.1,111.2l-4.5,0.2v-1.2c1.4-0.8,3-0.8,4.5-0.2V111.2z"/>
	<path class="st49" d="M154.1,110.3c-0.4-1.1-0.6-2.2-0.7-3.3h-1.8l0,0h-0.4h-1.6c0.1,0.5,0.4,0.9,0.5,1.6c0,0.4-0.3,1-0.5,1.8
		C149.3,115.6,155.7,114.6,154.1,110.3z"/>
	<path class="st50" d="M158.5,111.9c-1.2-0.3-3.3-1.4-4.3-1.5c-0.5,0.7-2.1,0.9-2.1,0.9c-0.8,0-1.7-0.3-2.4-0.8
		c-1.1,0.4-3.1,1.5-4.3,1.7c0,0,2.1,13.4,1.1,15.4c1.8,0.6,3.8,0.8,5.7,0.6c2,0.1,4-0.2,5.9-1C156.9,125.1,159.4,115.9,158.5,111.9z
		"/>
	<path class="st39" d="M151,112.5c0.7,0.3,1.5,0.3,2.2-0.1l-0.1-1.3c-0.7,0.2-1.5,0.3-2.2,0.1L151,112.5z"/>
	<polygon class="st39" points="150.9,121.8 152.5,124.3 153.9,121.6 152.7,112.5 151.6,112.5 	"/>
	<path class="st52" d="M146.4,129.1c0-0.5,0-1,0.2-1.5c1.2,0.4,10.8-0.1,11.6-0.4l0.1,1.5C158.2,128.9,146.4,129.3,146.4,129.1z"/>
	<path class="st53" d="M146.4,129.1c0-0.5,0-1,0.2-1.5c1.2,0.4,10.8-0.1,11.6-0.4l0.1,1.5C158.2,128.9,146.4,129.3,146.4,129.1z"/>
	<path class="st54" d="M152.8,129.2h-0.5c-0.5,0-1-0.4-1-0.9l0,0c0-0.5,0.4-1,0.9-1h0.5c0.5,0,1,0.4,1,0.9l0,0
		C153.7,128.8,153.3,129.2,152.8,129.2z M152.6,127.5h-0.3c-0.4,0-0.7,0.3-0.7,0.7l0,0l0,0c0,0.4,0.3,0.7,0.7,0.7l0,0h0.3
		c0.4,0,0.7-0.4,0.7-0.8l0,0C153.4,127.8,153,127.5,152.6,127.5C152.7,127.5,152.6,127.5,152.6,127.5z"/>
	<path class="st18" d="M147.6,103.5c0.1,2.1,1.8,3.8,3.9,3.8c0.1,0,0.2,0,0.4,0c2.2-0.1,4-1.9,4-4.1c0.1-0.4,0.1-0.9-0.1-1.3
		c-0.1-0.8-0.4-1.5-1-2c-0.9-0.7-2.1-1-3.3-0.9h-0.4C148.2,99.3,147.4,100.5,147.6,103.5z"/>
	<path class="st18" d="M148.1,104.5H148c0.3,0,0.3-0.6,0.3-0.8l0.3-2.8c0-0.2-0.3-0.4-0.5-0.4h-0.2c-0.2,0-0.4,0.2-0.4,0.4
		c-0.2,1.1-0.1,2.2,0.2,3.3C147.7,104.4,147.9,104.6,148.1,104.5z"/>
	<path class="st13" d="M148.3,106.1c0.1,0.6,0.4,1.1,0.7,1.5c0.2,0.3,0.4,0.6,0.6,0.8c0.6,0.7,1.4,1.2,2.3,1.2c1,0,1.9-0.5,2.3-1.4
		c0.2-0.3,0.4-0.6,0.5-0.9c0.3-0.5,0.5-1.1,0.6-1.7c1-0.2,1-2.3,0.1-1.1c0-0.6,0.1-1.9-0.4-1.8c-4.6,0.7-5.8-0.8-6.3,0
		c-0.3,0.5-0.2,1.4-0.6,2C146.8,103.6,147.4,106,148.3,106.1z"/>
	<path class="st55" d="M148.3,106.1c0.1,0.6,0.4,1.1,0.7,1.5c0.2,0.3,0.4,0.6,0.6,0.8c0.6,0.7,1.4,1.2,2.3,1.2c1,0,1.9-0.5,2.3-1.4
		c0.2-0.3,0.4-0.6,0.5-0.9c0.3-0.5,0.5-1.1,0.6-1.7c1-0.2,1-2.3,0.1-1.1c0-0.6,0.1-1.9-0.4-1.8c-4.6,0.7-5.8-0.8-6.3,0
		c-0.3,0.5-0.2,1.4-0.6,2C146.8,103.6,147.4,106,148.3,106.1z"/>
	<path class="st20" d="M150.4,104.7c0,0.2,0.2,0.3,0.4,0.3c0.1,0,0.3-0.1,0.3-0.3c0-0.2-0.2-0.3-0.3-0.3
		C150.6,104.5,150.4,104.6,150.4,104.7z"/>
	<path class="st20" d="M153.4,104.6c0,0.1,0.2,0.3,0.3,0.3c0.2,0,0.3-0.1,0.3-0.3c0-0.2-0.2-0.3-0.3-0.3
		C153.6,104.3,153.4,104.5,153.4,104.6z"/>
	<path class="st21" d="M152.4,106c0,0.2,0.8,0.6,0,0.8"/>
	<path class="st21" d="M153.1,107.7c-0.5,0.4-1.2,0.4-1.7,0.1"/>
	<path class="st18" d="M152.9,102.8c0,0,2.2-0.1,2.7-1.6s-0.3-2.2-0.3-2.2c-0.8,0.4-1.7,0.7-2.6,0.7c-1.6,0-1,2-1,2L152.9,102.8z"/>
	<path class="st18" d="M153,103.2c0.9,0.1,2.6,0.2,3.1-1.3s-0.1-2.1-0.1-2.1c-0.9,0.4-1.8,0.6-2.8,0.6c-1.6,0-4.3,2-4.3,2
		C150.2,102.8,151.6,103,153,103.2z"/>
	<path class="st18" d="M151.7,102.4c0,0,2.3,0.5,2.8-1.1s-0.3-2.2-0.3-2.2c-0.8,0.4-1.7,0.7-2.6,0.7c-1.6,0-1,2-1,2L151.7,102.4z"/>
	<path class="st22" d="M149.5,110.6l5-0.2l3.3,0.3c1.6,0.5,2.4,2.1,2.9,3.8c1.2,3.8,1.8,10,2.3,16.5c-1.1-0.2-3.1,2.8-4,3.1
		c-4.9,1.5-9.3-1.5-12.3,0.9c-0.7,0.5-3.7-3.8-4.7-4.2c0.1-5.4,0.6-10.8,1.6-16.1c0.2-1.5,1.2-2.8,2.6-3.3L149.5,110.6z"/>
	<path class="st34" d="M150,109.3l-0.5,1.2c1.6,0.8,3.5,0.8,5-0.2l-0.6-1.1C152.7,109.9,151.2,110,150,109.3z"/>
	<path class="st17" d="M28.4,155.6l5.3-2.8c2.3-1.2,5-0.9,6.3,0.9l5.6,7.8c1.5,2,0.4,5.1-2.3,6.5l-7.5,4c-2.7,1.4-5.8,0.7-6.7-1.7
		l-3.4-9C24.9,159.3,26,156.8,28.4,155.6z"/>
	<path class="st23" d="M46.2,164l0.6,1.1c0.3,0.8,0,1.7-0.8,2l-0.3,0.1l0.5,1l1.4-0.7c0.8-0.3,1.1-1.2,0.8-2l-1.1-2.1L46.2,164z"/>
	<path class="st23" d="M30.8,172.3l0.6,1.1c0.5,0.7,1.4,0.9,2.1,0.5l0.3-0.1l0.5,1l-1.4,0.7c-0.7,0.4-1.7,0.2-2.1-0.5l-1.1-2.1
		L30.8,172.3z"/>
	<path class="st24" d="M45.3,164.5l3-1.6l-1.5-2.7c-0.4-0.6-1.2-0.8-1.8-0.4l-0.4,0.2c-0.7,0.3-1,1.1-0.7,1.9L45.3,164.5z"/>
	<path class="st24" d="M28.8,173.4l3-1.6l-1.5-2.7c-0.4-0.6-1.2-0.8-1.8-0.4l-0.4,0.2c-0.7,0.3-1,1.1-0.7,1.9L28.8,173.4z"/>
	<path class="st23" d="M50.8,179.6c0,0-3.3,1.7-3.9,0.4l-5-9.3l-3.1,1.6l5,9.3c0.6,1.2-2.5,3-2.5,3c-0.3,0.1-0.4,0.5-0.3,0.8l0,0
		l0.1,0.3l10.6-5.7l-0.1-0.3C51.4,179.5,51,179.4,50.8,179.6z"/>
	<path class="st25" d="M46.9,169.1l-12.2,6.6c-0.7,0.4-1.5,0.1-1.9-0.6l0,0c-0.4-0.7-0.1-1.5,0.6-1.9l12.2-6.6
		c0.7-0.4,1.5-0.1,1.9,0.6l0,0C47.9,167.9,47.6,168.8,46.9,169.1z"/>
	<path class="st24" d="M33,175.5l14.7-7.9l-0.9-1.6c-0.3-0.5-0.9-0.6-1.4-0.4c0,0,0,0-0.1,0l-12.8,6.8c-0.5,0.2-0.8,0.8-0.6,1.3
		c0,0,0,0,0,0.1L33,175.5z"/>
	
		<rect x="40.5" y="182.8" transform="matrix(0.8814 -0.4724 0.4724 0.8814 -81.0225 43.7213)" class="st56" width="12.1" height="0.8"/>
	<path class="st27" d="M24.2,156.1l-1.5,2.5l-10.4-1.4c-0.9,0.1-1.6-0.6-1.7-1.4c0-0.1,0-0.2,0-0.3l0,0c0.2-1,1.1-1.8,2.1-1.8
		L24.2,156.1z"/>
	<path class="st13" d="M27.2,149.5c0.4-1.4,2.1-4.6,2.2-2.8c0.1,2.1-0.4,2.6-0.9,3.4l-4.3,8.2c-0.6,0.7-1.6,0.8-2.3,0.3l0,0l0,0
		c-0.7-0.6-0.5-1.6,0.3-2.3L27.2,149.5z"/>
	<path class="st14" d="M27.2,149.5c0.4-1.4,2.1-4.6,2.2-2.8c0.1,2.1-0.4,2.6-0.9,3.4l-4.3,8.2c-0.6,0.7-1.6,0.8-2.3,0.3l0,0l0,0
		c-0.7-0.6-0.5-1.6,0.3-2.3L27.2,149.5z"/>
	<path class="st13" d="M42.9,158.6L42.9,158.6c0.6-0.4,0.8-1.2,0.4-1.8c0,0,0-0.1-0.1-0.1l-2.8-3.4c-0.5-0.6-1.4-0.6-2-0.1l0,0
		c-0.6,0.4-0.8,1.2-0.4,1.8c0,0,0,0,0,0.1l2.8,3.4C41.5,159,42.4,159.1,42.9,158.6z"/>
	<path class="st14" d="M42.9,158.6L42.9,158.6c0.6-0.4,0.8-1.2,0.4-1.8c0,0,0-0.1-0.1-0.1l-2.8-3.4c-0.5-0.6-1.4-0.6-2-0.1l0,0
		c-0.6,0.4-0.8,1.2-0.4,1.8c0,0,0,0,0,0.1l2.8,3.4C41.5,159,42.4,159.1,42.9,158.6z"/>
	<path class="st28" d="M44.7,166.9c-0.6-1.4-1.1-2.3-2.1-2.6c-0.4-0.1-1.2-0.2-1.3-0.5l-7.3,3.9c0.2,0.3-0.4,1-0.3,1.3
		c0.3,1.1,0.7,2.1,1.3,3.1L44.7,166.9z"/>
	<path class="st29" d="M34,168.6c3-0.6,5.5-2.2,8.3-4.1l-7.5-14l-8,4.3L34,168.6z"/>
	<path class="st30" d="M33.1,153.2c0-0.1,0.1-0.3,0-0.4c0.6-0.8,0.1-1.7-0.3-2.1l3.1-0.9l2.1,3.9c1.8,4.6,3,8.5,5.2,10.8
		c-1.5,1.2-3.1,2.3-4.9,3C33.8,161.7,38.1,160.9,33.1,153.2z"/>
	<path class="st30" d="M27.6,159.1l-2.1-3.8l2.6-2l0.6,0.7c0.1,0.4,0.4,0.8,0.8,1c1.5,5.4,6.9,5.8,9.4,12.5
		c-1.6,0.8-3.3,1.5-5.1,2.1C33.3,167,29.9,163.2,27.6,159.1L27.6,159.1z"/>
	<path class="st13" d="M32.8,150.7l0.6-0.2c-0.7,3.3-3.3,4.3-5.5,3c0.2-0.1,0.5-0.3,0.6-0.5c-0.3-2.5-0.3-2.9-0.7-3.6l2.7-1.4
		C30.8,148.8,30.7,149.3,32.8,150.7z"/>
	<path class="st14" d="M32.8,150.7l0.6-0.2c-0.7,3.3-3.3,4.3-5.5,3c0.2-0.1,0.5-0.3,0.6-0.5c-0.3-2.5-0.3-2.9-0.7-3.6l2.7-1.4
		C30.8,148.8,30.7,149.3,32.8,150.7z"/>
	<ellipse class="st31" cx="37.3" cy="165.8" rx="0.2" ry="0.2"/>
	<path class="st31" d="M35.8,163.8c0.1,0.1,0.2,0.1,0.3,0.1c0.1-0.1,0.2-0.2,0.1-0.3c-0.1-0.1-0.2-0.1-0.3-0.1
		S35.8,163.7,35.8,163.8L35.8,163.8z"/>
	<ellipse class="st31" cx="35.2" cy="163.2" rx="0.2" ry="0.2"/>
	<path class="st31" d="M33.1,161.3c0.1,0.1,0.2,0.1,0.3,0.1l0,0c0.1,0,0.2-0.2,0.1-0.3l0,0c-0.1-0.1-0.2-0.1-0.3-0.1
		C33.1,161.1,33,161.2,33.1,161.3L33.1,161.3z"/>
	<path class="st31" d="M31.1,159.3c0.1,0.1,0.2,0.1,0.3,0.1l0,0c0.1,0,0.2-0.2,0.1-0.3s-0.2-0.2-0.3-0.1h-0.1
		C31.1,159.1,31,159.2,31.1,159.3L31.1,159.3z"/>
	<path class="st31" d="M29.7,156.9c0.1,0.1,0.2,0.1,0.4,0c0.1-0.1,0.1-0.2,0.1-0.3c-0.1-0.1-0.2-0.1-0.4,0
		C29.7,156.7,29.7,156.8,29.7,156.9z"/>
	<path class="st32" d="M29.7,156.9c0.1,0.1,0.2,0.1,0.4,0c0.1-0.1,0.1-0.2,0.1-0.3c-0.1-0.1-0.2-0.1-0.4,0
		C29.7,156.7,29.7,156.8,29.7,156.9z"/>
	<path class="st30" d="M37.5,150.1c-0.5-0.5-1.3-0.6-1.9-0.1h0.1l1.6,4.1l0.1,0.3c0.8,1.1,1.7,2.2,2.8,3.2c0.8,0.3,2.5-0.9,2.4-1.6
		C41.1,153.8,39.4,151.8,37.5,150.1z"/>
	<polygon class="st30" points="35.7,149.9 37.3,154.6 38.1,152.9 36.9,149.8 36.1,149.8 	"/>
	<path class="st30" d="M25.9,155.1c0.8,1.6,2,3,3.4,4.1l-2.3-0.5l-1.8-2.7l0.4-0.7L25.9,155.1z"/>
	<path class="st33" d="M31,144c1,1.9,0.3,4.3-1.5,5.4l-0.3,0.2c-2.1,0.9-4.5,0.1-5.5-1.9c-0.3-0.4-0.5-0.8-0.6-1.2
		c-0.3-0.7-0.3-1.5-0.1-2.3c0.4-1.1,1.3-2,2.4-2.4l0.3-0.2C28.3,140.4,29.6,141.2,31,144z"/>
	<path class="st33" d="M31,145.2l0.1-0.1c-0.2,0.1-0.6-0.4-0.7-0.6l-1.7-2.4c-0.1-0.2,0-0.5,0.2-0.6l0.2-0.1
		c0.2-0.1,0.5-0.1,0.6,0.1l0,0c0.7,0.9,1.2,2,1.5,3.1C31.3,144.9,31.2,145.1,31,145.2L31,145.2z"/>
	<path class="st22" d="M32.8,150.7l-4.4,2.4l-2.7,2c-1.2,1.3-1,3.1-0.6,4.7l6.6,14.4c0.8-0.7,2.3,0,2.9-0.8
		c2.6-3.2,7.8-7.1,11.6-6.5c0.9,0.1,2-1.3,2.7-2.1l-9.4-13.2c-1.2-1.3-1.8-2.3-3.5-2L32.8,150.7z"/>
	<path class="st34" d="M31.7,149.9l1,0.8c-0.9,1.5-2.6,2.4-4.4,2.4v-1.3C29.7,151.8,31,151.1,31.7,149.9z"/>
	<path class="st13" d="M31.6,146.7c0.1,0.6,0.2,1.2,0.1,1.8c0,1.2-0.7,2.3-1.7,3c-1.2,0.5-2.5,0.3-3.5-0.5c-0.5-0.3-1-0.8-1.3-1.2
		c-1,0.3-2-1.7-0.6-1c-0.3-0.5-1-1.7-0.6-1.9c4.4-1.6,4.7-3.5,5.5-3c0.6,0.4,1.6,0.9,1.5,1.6C31.7,143.7,32.4,146.2,31.6,146.7z"/>
	<path class="st14" d="M31.6,146.7c0.1,0.6,0.2,1.2,0.1,1.8c0,1.2-0.7,2.3-1.7,3c-1.2,0.5-2.5,0.3-3.5-0.5c-0.5-0.3-1-0.8-1.3-1.2
		c-1,0.3-2-1.7-0.6-1c-0.3-0.5-1-1.7-0.6-1.9c4.4-1.6,4.7-3.5,5.5-3c0.6,0.4,1.6,0.9,1.5,1.6C31.7,143.7,32.4,146.2,31.6,146.7z"/>
	<path class="st20" d="M26.7,147.7c0.1,0.2,0.1,0.4-0.1,0.5s-0.4,0.1-0.5-0.1c-0.1-0.2-0.1-0.4,0.1-0.5l0,0
		C26.4,147.5,26.6,147.5,26.7,147.7z"/>
	<path class="st20" d="M29.5,146.2c0.1,0.2,0.1,0.4-0.1,0.5s-0.4,0.1-0.5-0.1c-0.1-0.2-0.1-0.4,0.1-0.5l0,0
		C29.3,146,29.4,146.1,29.5,146.2z"/>
	<path class="st21" d="M28.3,148c0,0-0.4,1.2,0.4,0.7"/>
	<path class="st21" d="M28.5,150.1c0.6,0.1,1.2-0.2,1.5-0.7"/>
	<path class="st35" d="M54.8,179.3l-5.8,3.1c-0.4-0.4-0.6-0.8-0.7-1.3l2.5-1.3c0,0,3.2-2.5,3.9-0.6L54.8,179.3z"/>
	<path class="st15" d="M54.8,179.3l-5.8,3.1l-0.3-0.4l5.8-3.1h0.1L54.8,179.3z"/>
	<path class="st35" d="M39.6,187.5l5.8-3.1c-0.1-0.5-0.4-1-0.7-1.3l-2.5,1.3c0,0-3.8,1.3-2.7,2.9L39.6,187.5z"/>
	<path class="st15" d="M39.6,187.5l5.8-3.1l-0.1-0.4l-5.8,3.1v0.1L39.6,187.5z"/>
	<path class="st36" d="M45,166.8c2.1,4.4,3,7.7,5.2,13.3c-0.5,0.5-1.2,0.8-1.9,1c-2.9-4.6-4.5-7-7.4-12.1
		C39.2,165.7,43.8,163.8,45,166.8z"/>
	<path class="st36" d="M34.6,172.4c2.6,4.2,4.7,6.7,8.2,11.6c0.7-0.2,1.3-0.5,1.9-1c-2.2-4.9-3.3-7.6-5.9-12.9
		C36.9,167,32.8,169.7,34.6,172.4z"/>
	<path class="st37" d="M34.4,191l-5.2,2.9c-0.3-0.3-0.6-0.7-0.7-1.2l2.2-1.3c0,0,2.9-2.3,3.5-0.6L34.4,191z"/>
	<path class="st38" d="M34.4,191l-5.2,2.9l-0.2-0.3l5.2-2.9h0.1l0,0L34.4,191z"/>
	<path class="st39" d="M14,170.7l1.4,3c3,3.2,3.6,6.1,13.2,19.1c0.8-0.2,1.5-0.6,2-1.3c-2.2-3.5-10.7-24.1-10.3-24.3L14,170.7z"/>
	<path class="st40" d="M35.3,190.5l-5.2,2.9c-0.3-0.3-0.6-0.7-0.7-1.2l2.2-1.3c0,0,2.9-2.3,3.5-0.6L35.3,190.5z"/>
	<path class="st15" d="M35.3,190.5l-5.2,2.9l-0.3-0.3l5.2-2.9h0.1l0,0L35.3,190.5z"/>
	<path class="st41" d="M13.8,169.9L15,173c1,2.4,3.9,5.4,14.4,19.4c0.8-0.1,1.5-0.6,2-1.2c-0.6-1.6-9.7-23-9.7-23L13.8,169.9z"/>
	<path class="st27" d="M6.9,155.9c-0.8,1.1-0.8,6,6.8,14.1c0.8,2,1.2,3.1,1.2,3.1c2.7-0.9,5.2-2.3,7.4-4.2c0,0-6.5-13.5-9.9-13.8
		C10.5,154.8,8.6,155.1,6.9,155.9z"/>
	<path class="st42" d="M8.5,152.1c2.4-1.3,2.9-4.8,2.1-6.9c0.3-1-0.2-2.4-2.3-1.7c-0.3,0.1-4.6,1.5-4.9,3.1c-2.5,4,2.6,5.3,3.1,6.2
		C6.8,153.3,7.7,152.4,8.5,152.1z"/>
	<path class="st13" d="M12.4,155.1c-1.2-1.1-2.2-2.3-3.1-3.7l-3.4,0.1c1.2,2.3,1.4,2.8,1,4.4C8.7,155.8,10.6,155.5,12.4,155.1z"/>
	<path class="st14" d="M12.4,155.1c-1.2-1.1-2.2-2.3-3.1-3.7l-3.4,0.1c1.2,2.3,1.4,2.8,1,4.4C8.7,155.8,10.6,155.5,12.4,155.1z"/>
	<path class="st13" d="M10.6,145.1c0.5,0.5,0.9,1.1,1.1,1.8c0.1,0.9,0.4,1.2,1.6,1.7c0.1,0,0.1,0.1,0.1,0.2c0,0.2-0.2,0.4-0.4,0.5
		l0.4,2.1c0.2,0.5-0.3,0.9-0.8,1.2c-1.2,0.4-2.5,0.6-3.8,0.5c-0.9,0-1.3-0.2-1.6-1.6c-1.6,0.3-2.7-2.7-0.8-1.8
		c0.1,0-0.3-3.1-0.9-2.3C6.1,146.6,7.1,145.6,10.6,145.1z"/>
	<path class="st14" d="M10.6,145.1c0.5,0.5,0.9,1.1,1.1,1.8c0.1,0.9,0.4,1.2,1.6,1.7c0.1,0,0.1,0.1,0.1,0.2c0,0.2-0.2,0.4-0.4,0.5
		l0.4,2.1c0.2,0.5-0.3,0.9-0.8,1.2c-1.2,0.4-2.5,0.6-3.8,0.5c-0.9,0-1.3-0.2-1.6-1.6c-1.6,0.3-2.7-2.7-0.8-1.8
		c0.1,0-0.3-3.1-0.9-2.3C6.1,146.6,7.1,145.6,10.6,145.1z"/>
	<path class="st43" d="M12.1,150.7c0.4,0.2,0.8,0.1,1.1-0.2"/>
	<path class="st44" d="M10.6,147.3c-0.3,0.1-0.6,0.3-0.8,0.6c-0.1,0-0.2-0.1-0.2-0.2c0.2-0.3,0.5-0.5,0.8-0.6
		C10.6,147.1,10.6,147.2,10.6,147.3z"/>
	<path class="st45" d="M10.8,148.2c0.1,0.1,0.2,0.2,0.3,0.1l0,0c0.1-0.1,0.2-0.2,0.2-0.3c-0.1-0.1-0.2-0.2-0.3-0.1l0,0
		C10.8,148,10.8,148.1,10.8,148.2z"/>
	<path class="st42" d="M7.7,149.8c0,0,0.5,1.1,0.7,1.5c0,0.1,0.6,0.6,0.6,0.6c0.8,0.1,1.7-0.2,2.3-0.8c0.3-0.4,0.3-1.2,1.8-1.6
		c0.2,0.2,0.3,0.6,0.2,0.9l0.4,1.3c0.3,0.5,0,1.2-0.5,1.4h-0.1c-0.6,0.2-2.1,0-2.9,0.1s-2.4,0.1-2.4-0.5
		C7.5,151.7,7.6,150.7,7.7,149.8z"/>
	<path class="st19" d="M13.2,150.3c0,0,0.2,0.1,0.1,0.3s-0.8,0.2-0.8,0.2L13.2,150.3z"/>
	<path class="st27" d="M7.1,154.9l-0.5,1.3c2,0.1,3.9,0,5.9-0.2l-0.1-1C10.6,154.8,8.8,154.8,7.1,154.9z"/>
	<path class="st22" d="M6.6,156.5l5.6,1.3l4.5,7.5c0,0-3.7,2.9-5,2.6c0,0.4,1,1.1,1,1.1c1.7-0.4,3.3-1.1,4.7-2.2c0,0,5.9,9,5.7,9.9
		c2.1-0.3,2.3-0.8,2.3-0.8s-7.3-16.9-9.9-18.4c-1.1-0.4-2.2-0.8-3.3-1L6.6,156.5z"/>
	<path class="st27" d="M18.3,159.1l-1.8,3.1l-8-1.9c-0.8-0.1-1.3-0.9-1.1-1.7c0-0.1,0.1-0.2,0.1-0.3l0,0c0.4-0.9,1.3-1.4,2.3-1.2
		L18.3,159.1z"/>
	<path class="st13" d="M19.9,151.7c-0.4-1.2-0.3-1.9,0.4-0.7c0.1,0.1,0.3-3.5,1.9-2.9c1.8,0.8-0.2,2.2-1,3.5l-2.5,9.4
		c-0.2,0.8-1,1.4-1.8,1.2l0,0l0,0c-0.7-0.1-1.2-0.7-1.1-1.3c0-0.2,0.1-0.3,0.1-0.5L19.9,151.7z"/>
	<path class="st14" d="M19.9,151.7c-0.4-1.2-0.3-1.9,0.4-0.7c0.1,0.1,0.3-3.5,1.9-2.9c1.8,0.8-0.2,2.2-1,3.5l-2.5,9.4
		c-0.2,0.8-1,1.4-1.8,1.2l0,0l0,0c-0.7-0.1-1.2-0.7-1.1-1.3c0-0.2,0.1-0.3,0.1-0.5L19.9,151.7z"/>
	<path class="st46" d="M7.9,145.8c0.2,0.5,0.4,1.1,0.6,1.6c0,0.3-1.7,2.7-2.1,2.5c-1.4-0.7-1.3,0.8-0.2,1.6c-0.3,0-0.3-0.2,0.5,1.5
		c-0.4-0.4-3.4-1.9-3.8-3.5C3.2,148.9,6.8,145.7,7.9,145.8z"/>
	<path class="st17" d="M78.9,133.8l5.7-1.8c2.5-0.8,5.1,0.1,6,2l4.1,8.7c1.1,2.3-0.6,5.1-3.5,6l-8.2,2.6c-2.9,0.9-5.8-0.4-6.3-2.9
		l-1.6-9.4C74.8,136.8,76.4,134.6,78.9,133.8z"/>
	<path class="st23" d="M94.9,145.5l0.4,1.2c0.2,0.8-0.3,1.7-1.2,1.9l-0.3,0.1l0.3,1l1.5-0.5c0.8-0.2,1.3-1,1.2-1.8l-0.7-2.3
		L94.9,145.5z"/>
	<path class="st23" d="M78.2,150.7l0.4,1.2c0.3,0.8,1.2,1.2,2,0.9l0.3-0.1l0.3,1l-1.5,0.5c-0.8,0.3-1.7-0.1-2-0.9L77,151L78.2,150.7
		z"/>
	<path class="st24" d="M93.9,145.8l3.2-1l-0.9-2.9c-0.3-0.7-1-1-1.7-0.7l-0.5,0.1c-0.7,0.2-1.2,0.9-1,1.7L93.9,145.8z"/>
	<path class="st24" d="M76,151.4l3.2-1l-0.9-2.9c-0.3-0.7-1-1-1.7-0.7l-0.5,0.1c-0.7,0.2-1.2,0.9-1,1.7L76,151.4z"/>
	<path class="st23" d="M96.4,161.6c0,0-3.5,1-4-0.3l-3.2-10.1l-3.3,1l3.2,10.1c0.4,1.3-3.1,2.5-3.1,2.5c-0.3,0.1-0.5,0.4-0.4,0.7
		l0.1,0.3l11.5-3.6l-0.1-0.3C97,161.6,96.7,161.5,96.4,161.6z"/>
	<path class="st57" d="M94.4,152.5l-13.2,4.2c-0.7,0.2-1.5-0.2-1.8-0.9l0,0c-0.2-0.7,0.2-1.5,0.9-1.8l13.2-4.2
		c0.7-0.2,1.5,0.2,1.8,0.9l0,0C95.6,151.5,95.1,152.3,94.4,152.5z"/>
	<path class="st24" d="M79.7,154.2l15.9-5l-0.6-1.8c-0.2-0.5-0.8-0.8-1.3-0.6c0,0,0,0-0.1,0l-13.8,4.3c-0.5,0.1-0.9,0.6-0.8,1.2
		c0,0,0,0,0,0.1L79.7,154.2z"/>
	
		<rect x="85.5" y="164" transform="matrix(0.9543 -0.2987 0.2987 0.9543 -44.9265 34.8517)" class="st47" width="12.1" height="0.8"/>
	<path class="st17" d="M4.5,179.7l3.7-2.4c1.4-1.1,3.4-1,4.6,0.3l4.6,5.3c1.2,1.4,0.6,3.7-1.3,4.9l-5.3,3.4c-1.9,1.2-4.2,0.8-5-0.8
		l-3-6.3C2.2,182.4,2.9,180.6,4.5,179.7z"/>
	<path class="st23" d="M18,184.8l0.5,0.8c0.3,0.5,0.1,1.2-0.4,1.5l0,0l-0.2,0.1l0.4,0.7l1-0.6c0.5-0.3,0.7-1,0.5-1.5l0,0l-0.9-1.5
		L18,184.8z"/>
	<path class="st23" d="M7.3,191.8l0.5,0.8c0.4,0.5,1.1,0.6,1.6,0.2l0.2-0.1l0.4,0.7L9.1,194c-0.5,0.4-1.2,0.3-1.6-0.2l-1-1.5
		L7.3,191.8z"/>
	<path class="st24" d="M17.4,185.2l2.1-1.4l-1.2-1.9c-0.3-0.4-0.9-0.5-1.3-0.2l-0.3,0.2c-0.5,0.3-0.7,0.9-0.4,1.3l0,0L17.4,185.2z"
		/>
	<path class="st24" d="M5.9,192.7l2.1-1.3l-1.2-1.9c-0.3-0.4-0.9-0.5-1.3-0.2l-0.3,0.2c-0.5,0.2-0.7,0.9-0.4,1.3c0,0,0,0,0,0.1
		L5.9,192.7z"/>
	<path class="st23" d="M22.3,195.8c0,0-2.3,1.4-2.9,0.6l-4.2-6.5l-2.1,1.4l4.2,6.5c0.5,0.8-1.7,2.4-1.7,2.4
		c-0.2,0.1-0.3,0.4-0.2,0.6l0.1,0.2l7.4-4.9l-0.1-0.2C22.7,195.7,22.5,195.7,22.3,195.8z"/>
	<path class="st25" d="M18.8,188.5l-8.5,5.5c-0.5,0.3-1.1,0.2-1.4-0.3l0,0c-0.3-0.5-0.2-1.1,0.3-1.4l8.5-5.5
		c0.5-0.3,1.1-0.2,1.4,0.3l0,0C19.4,187.5,19.3,188.2,18.8,188.5z"/>
	<path class="st24" d="M9.1,193.9l10.2-6.6l-0.8-1.2c-0.3-0.3-0.7-0.4-1.1-0.1l-8.9,5.7c-0.4,0.2-0.5,0.6-0.3,1L9.1,193.9z"/>
	
		<rect x="15" y="198.5" transform="matrix(0.8385 -0.5449 0.5449 0.8385 -105.1828 42.7022)" class="st25" width="8.9" height="0.6"/>
	
		<rect x="187.9" y="101.8" transform="matrix(0.9995 -3.054262e-02 3.054262e-02 0.9995 -3.134 5.817)" class="st58" width="1.9" height="7.4"/>
	
		<rect x="187.9" y="101.8" transform="matrix(0.9995 -3.054262e-02 3.054262e-02 0.9995 -3.134 5.817)" class="st59" width="1.9" height="7.4"/>
	<g>
		<g>
			<g>
				<g>
					<g>
						<defs>
							
								<rect id="SVGID_3_" x="188" y="101.8" transform="matrix(0.9995 -3.054262e-02 3.054262e-02 0.9995 -3.134 5.8201)" width="1.9" height="7.4"/>
						</defs>
						<clipPath id="SVGID_4_">
							<use xlink:href="#SVGID_3_"  style="overflow:visible;"/>
						</clipPath>
						<g class="st60">
							
								<rect x="188.8" y="101.4" transform="matrix(0.6852 -0.7284 0.7284 0.6852 -16.1287 170.4591)" class="st61" width="0.6" height="5"/>
							
								<rect x="188.8" y="103.4" transform="matrix(0.6852 -0.7284 0.7284 0.6852 -17.6057 171.0842)" class="st22" width="0.6" height="5"/>
							
								<rect x="188.7" y="99.6" transform="matrix(0.6852 -0.7284 0.7284 0.6852 -14.8709 169.8244)" class="st22" width="0.6" height="5"/>
							
								<rect x="188.9" y="105.3" transform="matrix(0.6852 -0.7284 0.7284 0.6852 -18.9725 171.7583)" class="st61" width="0.6" height="5"/>
							
								<rect x="188.9" y="107.2" transform="matrix(0.6852 -0.7284 0.7284 0.6852 -20.3394 172.3497)" class="st22" width="0.6" height="5"/>
						</g>
					</g>
				</g>
			</g>
		</g>
	</g>
	<path class="st62" d="M188.8,100.3c0.6,0,1.1,0.5,1.1,1.1l-2.2,0.1C187.7,100.8,188.2,100.3,188.8,100.3L188.8,100.3z"/>
	
		<rect x="187.8" y="101.6" transform="matrix(0.9995 -3.054262e-02 3.054262e-02 0.9995 -3.0164 5.8152)" class="st63" width="2.1" height="0.1"/>
	
		<rect x="187.7" y="101.4" transform="matrix(0.9995 -3.054262e-02 3.054262e-02 0.9995 -3.0119 5.8151)" class="st63" width="2.3" height="0.2"/>
	<path class="st62" d="M189.1,110.6c-0.6,0-1.1-0.5-1.1-1.1l0,0l2.2-0.1C190.2,110.1,189.7,110.6,189.1,110.6z"/>
	
		<rect x="188" y="109.2" transform="matrix(0.9995 -3.054262e-02 3.054262e-02 0.9995 -3.2485 5.8249)" class="st63" width="2.1" height="0.1"/>
	
		<rect x="187.9" y="109.4" transform="matrix(0.9995 -3.054262e-02 3.054262e-02 0.9995 -3.2561 5.825)" class="st63" width="2.3" height="0.2"/>
	
		<rect x="253.2" y="117.9" transform="matrix(0.3384 -0.941 0.941 0.3384 58.1551 320.3993)" class="st58" width="7.4" height="1.9"/>
	
		<rect x="253.2" y="117.9" transform="matrix(0.3384 -0.941 0.941 0.3384 58.1551 320.3993)" class="st64" width="7.4" height="1.9"/>
	<g>
		<g>
			<g>
				<g>
					<g>
						<defs>
							
								<rect id="SVGID_5_" x="254" y="117.8" transform="matrix(0.3401 -0.9404 0.9404 0.3401 58.3304 320.6739)" width="7.4" height="1.9"/>
						</defs>
						<clipPath id="SVGID_6_">
							<use xlink:href="#SVGID_5_"  style="overflow:visible;"/>
						</clipPath>
						<g class="st65">
							
								<rect x="257.2" y="115" transform="matrix(0.9047 -0.4261 0.4261 0.9047 -25.521 120.9212)" class="st61" width="0.6" height="5"/>
							
								<rect x="256.6" y="116.8" transform="matrix(0.9047 -0.4261 0.4261 0.9047 -26.3458 120.8367)" class="st22" width="0.6" height="5"/>
							
								<rect x="257.9" y="113.2" transform="matrix(0.9047 -0.4261 0.4261 0.9047 -24.6886 121.0478)" class="st22" width="0.6" height="5"/>
							
								<rect x="256" y="118.6" transform="matrix(0.9047 -0.4261 0.4261 0.9047 -27.1705 120.752)" class="st61" width="0.6" height="5"/>
							
								<rect x="255.3" y="120.4" transform="matrix(0.9047 -0.4261 0.4261 0.9047 -28.0032 120.6256)" class="st22" width="0.6" height="5"/>
						</g>
					</g>
				</g>
			</g>
		</g>
	</g>
	<path class="st62" d="M258.6,114c0.6,0.2,0.9,0.8,0.7,1.4l0,0l-2.1-0.7C257.4,114.1,258.1,113.8,258.6,114L258.6,114z"/>
	<rect x="258" y="114.3" transform="matrix(0.3384 -0.941 0.941 0.3384 62.2326 319.12)" class="st62" width="0.1" height="2.1"/>
	
		<rect x="258.2" y="113.9" transform="matrix(0.3384 -0.941 0.941 0.3384 62.6125 319.1271)" class="st62" width="0.2" height="2.3"/>
	<path class="st62" d="M255.1,123.7c-0.6-0.2-0.9-0.8-0.7-1.4l0,0l2.1,0.7C256.3,123.6,255.7,123.9,255.1,123.7L255.1,123.7z"/>
	
		<rect x="255.6" y="121.3" transform="matrix(0.3384 -0.941 0.941 0.3384 54.0072 321.4442)" class="st62" width="0.1" height="2.1"/>
	
		<rect x="255.4" y="121.4" transform="matrix(0.3384 -0.941 0.941 0.3384 53.7601 321.4988)" class="st62" width="0.2" height="2.3"/>
	
		<rect x="55.7" y="119.3" transform="matrix(0.8704 -0.4924 0.4924 0.8704 -53.2218 43.8411)" class="st58" width="1.9" height="7.4"/>
	
		<rect x="55.7" y="119.3" transform="matrix(0.8704 -0.4924 0.4924 0.8704 -53.2218 43.8411)" class="st66" width="1.9" height="7.4"/>
	<g>
		<g>
			<g>
				<g>
					<g>
						<defs>
							
								<rect id="SVGID_7_" x="55.7" y="119.3" transform="matrix(0.8704 -0.4924 0.4924 0.8704 -53.2228 43.8409)" width="1.9" height="7.4"/>
						</defs>
						<clipPath id="SVGID_8_">
							<use xlink:href="#SVGID_7_"  style="overflow:visible;"/>
						</clipPath>
						<g class="st67">
							
								<rect x="54.5" y="120.5" transform="matrix(0.2707 -0.9627 0.9627 0.2707 -78.4556 142.4343)" class="st61" width="0.6" height="5"/>
							
								<rect x="56.7" y="120.8" transform="matrix(0.2672 -0.9636 0.9636 0.2672 -77.0675 145.2238)" class="st22" width="0.6" height="5"/>
							
								<rect x="54.8" y="117.5" transform="matrix(0.2672 -0.9636 0.9636 0.2672 -75.29 141.0711)" class="st22" width="0.6" height="5"/>
							
								<rect x="57.6" y="122.5" transform="matrix(0.2672 -0.9636 0.9636 0.2672 -77.9994 147.3694)" class="st61" width="0.6" height="5"/>
							
								<rect x="58.4" y="124.1" transform="matrix(0.2672 -0.9636 0.9636 0.2672 -78.9742 149.3939)" class="st22" width="0.6" height="5"/>
						</g>
					</g>
				</g>
			</g>
		</g>
	</g>
	<path class="st62" d="M54.1,118.6c0.5-0.3,1.2-0.1,1.5,0.4l0,0l-1.9,1.1C53.4,119.5,53.6,118.9,54.1,118.6z"/>
	
		<rect x="53.7" y="119.7" transform="matrix(0.8704 -0.4924 0.4924 0.8704 -51.8673 42.4829)" class="st68" width="2.1" height="0.1"/>
	
		<rect x="53.6" y="119.5" transform="matrix(0.8704 -0.4924 0.4924 0.8704 -51.7961 42.4626)" class="st68" width="2.3" height="0.2"/>
	<path class="st62" d="M59.2,127.6c-0.5,0.3-1.2,0.1-1.5-0.4l1.9-1.1C59.9,126.6,59.7,127.3,59.2,127.6z"/>
	
		<rect x="57.5" y="126.3" transform="matrix(0.8704 -0.4924 0.4924 0.8704 -54.6258 45.2087)" class="st68" width="2.1" height="0.1"/>
	
		<rect x="57.5" y="126.4" transform="matrix(0.8704 -0.4924 0.4924 0.8704 -54.6871 45.2772)" class="st68" width="2.3" height="0.2"/>
	
		<rect x="122.6" y="102.3" transform="matrix(0.9994 -3.437744e-02 3.437744e-02 0.9994 -3.5709 4.31)" class="st58" width="1.9" height="7.4"/>
	
		<rect x="122.6" y="102.3" transform="matrix(0.9994 -3.437744e-02 3.437744e-02 0.9994 -3.5709 4.31)" class="st69" width="1.9" height="7.4"/>
	<g>
		<g>
			<g>
				<g>
					<g>
						<defs>
							
								<rect id="SVGID_9_" x="122.6" y="102.3" transform="matrix(0.9994 -3.437746e-02 3.437746e-02 0.9994 -3.5709 4.31)" width="1.9" height="7.4"/>
						</defs>
						<clipPath id="SVGID_10_">
							<use xlink:href="#SVGID_9_"  style="overflow:visible;"/>
						</clipPath>
						<g class="st70">
							
								<rect x="123.4" y="102" transform="matrix(0.6824 -0.731 0.731 0.6824 -37.1009 123.6198)" class="st61" width="0.6" height="5"/>
							
								<rect x="123.5" y="103.9" transform="matrix(0.6824 -0.731 0.731 0.6824 -38.4676 124.3058)" class="st22" width="0.6" height="5"/>
							
								<rect x="123.3" y="100.1" transform="matrix(0.6824 -0.731 0.731 0.6824 -35.7285 122.9479)" class="st22" width="0.6" height="5"/>
							
								<rect x="123.5" y="105.8" transform="matrix(0.6824 -0.731 0.731 0.6824 -39.8396 124.8953)" class="st61" width="0.6" height="5"/>
							
								<rect x="123.6" y="107.7" transform="matrix(0.6824 -0.731 0.731 0.6824 -41.2051 125.577)" class="st22" width="0.6" height="5"/>
						</g>
					</g>
				</g>
			</g>
		</g>
	</g>
	<path class="st62" d="M123.4,100.9c0.6,0,1.1,0.5,1.1,1.1l0,0l-2.2,0.1C122.3,101.4,122.8,100.9,123.4,100.9z"/>
	
		<rect x="122.4" y="102.2" transform="matrix(0.9994 -3.437746e-02 3.437746e-02 0.9994 -3.4421 4.3043)" class="st71" width="2.1" height="0.1"/>
	
		<rect x="123.8" y="101.2" transform="matrix(0.9996 -2.998056e-02 2.998056e-02 0.9996 -2.981 3.7918)" class="st72" width="2.3" height="0.2"/>
	<path class="st62" d="M123.8,111.2c-0.6,0-1.1-0.5-1.1-1.1l0,0l2.2-0.1C124.8,110.7,124.4,111.2,123.8,111.2z"/>
	
		<rect x="122.7" y="109.7" transform="matrix(0.9994 -3.437744e-02 3.437744e-02 0.9994 -3.6997 4.319)" class="st71" width="2.1" height="0.1"/>
	
		<rect x="122.6" y="109.9" transform="matrix(0.9994 -3.437744e-02 3.437744e-02 0.9994 -3.7083 4.3192)" class="st71" width="2.3" height="0.2"/>
</g>
<g id="Layer_3">
	<path class="st73" d="M71.6,133.1l2.7,0.5l4.4-8.1c0.5-0.7,0.4-1.7-0.3-2.2l-0.1-0.1l0,0c-0.8-0.5-1.9-0.4-2.5,0.4L71.6,133.1z"/>
	<path class="st74" d="M65.1,131c-0.4-0.4-2.1-1.6-1.2-0.2c-1.5-0.5-3.5-0.7-2.8,0.5c0.8,1.3,2.9,0.9,3.8,0.9l8.4,2.1
		c1-0.1,1.5-0.6,1.4-1.5l0,0c-0.1-0.9-1-1.4-1.8-1.3h-0.1L65.1,131z"/>
	<path class="st37" d="M94.8,166.9l5.8-3c-0.2-0.5-0.5-1-0.9-1.5l-2.5,1.3c0,0-3.9,1.2-2.5,3L94.8,166.9z"/>
	<path class="st38" d="M94.8,166.9l5.8-3l-0.2-0.5l-5.8,3v0.1l0,0L94.8,166.9z"/>
	<path class="st39" d="M86.4,137.4l2.1,2.9c1.5,4.3,3.9,6.6,11.3,22.2c-0.5,0.6-1.3,1-2.1,1c-2.2-3.9-16.8-23.6-17.1-23.4
		L86.4,137.4z"/>
	<path class="st40" d="M84,168.5l6.9-1c0-0.6-0.1-1.2-0.3-1.7l-3,0.4c0,0-4.3-0.2-3.6,2V168.5z"/>
	<path class="st15" d="M84,168.5l6.9-1V167l-6.9,1c-0.1,0-0.1,0.1-0.1,0.1l0,0L84,168.5z"/>
	<path class="st41" d="M87.4,136.9l0.5,0.6c0.7,0.9,1.2,1.9,1.3,3c0.5,3.5,0.7,10.5,1.5,25.6c-0.7,0.4-1.5,0.5-2.3,0.3
		c-0.5-1.7-7.5-26.2-7.5-26.2L87.4,136.9z"/>
	<path class="st73" d="M76.5,121.3c1.3-0.1,5.8,2.8,9.7,13.9c1.5,1.9,2.3,2.8,2.3,2.8c-2.1,1.8-4.5,3-7.2,3.8c0,0-9.2-13.3-8-16.4
		C73.8,123.7,75,122.3,76.5,121.3z"/>
	<path class="st75" d="M72.3,120.4c-2.3,1.2-5.7-0.3-7.3-2.3c-1-0.4-2.2-1.2-1-3.6c0.1-0.3,4-2.3,5.6-1.7c4.8,0.2,3.6,5.3,4.2,6.2
		C74.2,119.7,72.9,120,72.3,120.4z"/>
	<path class="st13" d="M73.2,125.4c-0.5-1.6-1.1-3.2-1.9-4.7l1.6-2.8c1.5,2.4,1.9,2.8,3.5,3.4C75.5,122.8,74.5,124.1,73.2,125.4z"/>
	<path class="st76" d="M73.2,125.4c-0.5-1.6-1.1-3.2-1.9-4.7l1.6-2.8c1.5,2.4,1.9,2.8,3.5,3.4C75.5,122.8,74.5,124.1,73.2,125.4z"/>
	<path class="st13" d="M65,118.1c0.2,0.7,0.6,1.4,1.2,2c0.7,0.6,0.9,1,0.8,2.4c0,0.1,0.1,0.2,0.2,0.2c0.2,0.1,0.5,0.1,0.7,0l1.7,1.5
		c0.4,0.4,1,0.3,1.5,0c0.9-0.8,1.7-1.8,2.2-2.9c0.4-0.8,0.4-1.2-0.7-2.3c1-1.2-1.3-3.8-1.3-1.7c0.1,1.3-2.2-0.6-2.6-1.5
		C66,117.9,67,115.5,65,118.1z"/>
	<path class="st76" d="M65,118.1c0.2,0.7,0.6,1.4,1.2,2c0.7,0.6,0.9,1,0.8,2.4c0,0.1,0.1,0.2,0.2,0.2c0.2,0.1,0.5,0.1,0.7,0l1.7,1.5
		c0.4,0.4,1,0.3,1.5,0c0.9-0.8,1.7-1.8,2.2-2.9c0.4-0.8,0.4-1.2-0.7-2.3c1-1.2-1.3-3.8-1.3-1.7c0.1,1.3-2.2-0.6-2.6-1.5
		C66,117.9,67,115.5,65,118.1z"/>
	<path class="st77" d="M69.4,122.6c0,0.4-0.3,0.7-0.7,0.8"/>
	<path class="st44" d="M67,119.4c0.3-0.2,0.6-0.3,0.9-0.3c0-0.1,0-0.2-0.1-0.3c-0.3,0-0.6,0.1-0.9,0.3
		C66.9,119.3,66.9,119.4,67,119.4z"/>
	<path class="st78" d="M67.7,120.1c0.1,0.1,0.1,0.2,0,0.3l0,0c-0.1,0.1-0.3,0.1-0.4,0s-0.1-0.2,0-0.3l0,0
		C67.5,120,67.6,120,67.7,120.1z"/>
	<path class="st75" d="M72.5,119c0,0-1.2,0.5-0.9,0.9c0,0.1,0.3,0.8,0.3,0.8c-0.3,0.7-1,1.3-1.7,1.5c-0.8-0.3-1.7,0-2.3,0.5
		c0.1,0.3,0.4,0.6,0.7,0.6l1,1.1c0.3,0.5,1,0.7,1.6,0.4c0,0,0,0,0.1,0c0.5-0.4,3-3.5,2.1-4.8C73.1,119.6,72.8,119.3,72.5,119z"/>
	<path class="st74" d="M68.6,123.3c0,0,0,0.3,0.2,0.3s0.5-0.5,0.5-0.5L68.6,123.3z"/>
	<path class="st75" d="M63.9,114.8c0,0,0.1-0.6,1.3-1.4c-0.3,0.3-0.6,0.8-0.7,1.2C64.6,114.7,63.9,114.8,63.9,114.8z"/>
	<path class="st75" d="M64.2,114.8c0,0,0.1-0.6,1.3-1.4c-0.3,0.4-0.6,0.8-0.7,1.2C64.8,114.7,64.2,114.8,64.2,114.8z"/>
	<path class="st75" d="M64.6,114.5c0,0,0.2-0.6,1.5-1.1c-0.3,0.2-1,1-0.9,1.1S64.6,114.5,64.6,114.5z"/>
	<path class="st73" d="M75.5,120.9l1.4,0.4c-0.8,1.7-1.8,3.3-2.9,4.8l-0.8-0.7C73.8,123.8,74.6,122.3,75.5,120.9z"/>
	<path class="st22" d="M77.6,121.4l-1.8,5.3l3.6,8.7c1.3,0.1,4.7-1.8,5.6-3.5c0.3,0.5,0.5,1.1,0.6,1.7c-1.4,1.6-3.2,2.8-5.3,3.4
		c0,0,3.2,11.1,4,11.5c-1.4,1.4-1.7,1.1-1.7,1.1c-0.7-4.8-7.6-16.9-8.8-20.6c0.2-1,0.4-2,0.7-3L77.6,121.4z"/>
	<path class="st73" d="M74.2,132.7l3.6,0.3l2-7.8c0.2-0.9-0.3-1.8-1.2-2h-0.1l0,0c-0.9-0.2-1.9,0.3-2.1,1.2L74.2,132.7z"/>
	<path class="st79" d="M64.8,138.1c-0.3,0-0.5-0.1-0.6-0.4c-0.1-0.2,0-0.5,0.2-0.6c0.3,0,0.5,0.1,0.6,0.4
		C65.2,137.8,65.1,138,64.8,138.1C64.9,138.1,64.9,138.1,64.8,138.1z M65,137.6c-0.1-0.2-0.2-0.3-0.5-0.3c-0.2,0.1-0.3,0.3-0.2,0.5
		l0,0c0,0.2,0.2,0.3,0.5,0.3C65,138,65.1,137.7,65,137.6z"/>
	<path class="st79" d="M65.5,136.6c-0.4-0.3-0.9-0.5-1.3-0.7l-2.6-2.1L65.5,136.6C65.6,136.5,65.5,136.5,65.5,136.6z"/>
	<path class="st79" d="M64.5,137.1L64.5,137.1l-1.5-4.4l1.3,2.9C64.4,136.2,64.5,136.7,64.5,137.1L64.5,137.1z"/>
	<path class="st79" d="M65.7,137.1c-0.3-0.2-0.3-0.4-0.2-0.6c0.2-0.2,0.5-0.2,0.7,0c0.2,0.1,0.3,0.4,0.2,0.6l0,0
		C66.2,137.3,65.9,137.3,65.7,137.1z M66.3,137c0.1-0.1,0-0.4-0.2-0.5s-0.4-0.1-0.6,0c-0.1,0.1,0,0.4,0.2,0.5
		C65.9,137.2,66.2,137.2,66.3,137z"/>
	<path class="st13" d="M67.3,136.7c-1.4-0.1-2.1,0.1-0.6,0.5c0.2,0-3.7-0.5-2.5,0.8c1.4,1.4,2.3,0.8,3.4-0.1l9.4-4.1
		c0.8-0.4,1.2-1.1,0.7-1.9l0,0c-0.5-0.8-1.5-1-2.3-0.5L67.3,136.7z"/>
	<path class="st76" d="M67.3,136.7c-1.4-0.1-2.1,0.1-0.6,0.5c0.2,0-3.7-0.5-2.5,0.8c1.4,1.4,2.3,0.8,3.4-0.1l9.4-4.1
		c0.8-0.4,1.2-1.1,0.7-1.9l0,0c-0.5-0.8-1.5-1-2.3-0.5L67.3,136.7z"/>
	<path class="st37" d="M83.3,169.1l-6.3,1.6c-0.3-0.5-0.4-1-0.5-1.6l2.8-0.7c0,0,3.7-1.7,4,0.5V169.1z"/>
	<path class="st38" d="M83.3,169.1l-6.3,1.6l-0.2-0.5l6.3-1.6c0.1,0,0.1,0,0.1,0.1L83.3,169.1z"/>
	<path class="st80" d="M49.2,138.3c1-2.1-1-4.9-3.3-6.1c-0.3-0.1-0.4-0.3-0.2-0.7c-0.3,0-0.4-0.2-0.2-0.6c-0.9,0.3-1.7,0.6-2.5,1
		c-0.4,0.3-0.8,0.6-1.2,1c-1.5,1.6-1.5,2.8-0.6,4.1c0.8,4.2,5.8,2.5,6.8,2.9C48.7,140.1,48.8,138.9,49.2,138.3z"/>
	<path class="st81" d="M59.8,154.3l12.8-2.1c1.6-0.4,3.2,0.5,3.7,2.1c0,0.1,0.1,0.2,0.1,0.3l2.2,14c-0.8,0.6-1.5,1.1-2.3,0.5l-4-13
		L61.4,159C60.1,157.4,59.2,155.8,59.8,154.3z"/>
	<path class="st40" d="M81.7,169.5l-6.3,1.6c-0.3-0.5-0.4-1-0.5-1.6l2.8-0.7c0,0,3.7-1.7,4,0.5V169.5z"/>
	<path class="st15" d="M81.7,169.5l-6.3,1.6l-0.2-0.4l6.3-1.6c0.1,0,0.1,0,0.1,0.1L81.7,169.5z"/>
	<path class="st82" d="M57.8,154.7l13.5-2.2c1.6-0.4,3.2,0.5,3.7,2.1c0,0.1,0.1,0.2,0.1,0.3l2.2,14c-0.8,0.6-1.5,1.1-2.3,0.5l-4-13
		l-11.5,2.9C58.1,157.8,57.2,156.3,57.8,154.7z"/>
	<path class="st83" d="M48.1,142.3c-0.9,4.6,3.2,7.5,8.1,11.6c0.7,1,1.3,2,1.7,3.1c2.9-0.1,5.7-1.4,7.6-3.7
		c-2.8-2.7-5.8-10.1-12.3-12.5c-0.3-0.1-0.6-0.1-0.9-0.1l-3.9,1.5C48.2,142.1,48.1,142.2,48.1,142.3z"/>
	<path class="st84" d="M48.1,142.3c-0.9,4.6,3.2,7.5,8.1,11.6c0.7,1,1.3,2,1.7,3.1c2.9-0.1,5.7-1.4,7.6-3.7
		c-2.8-2.7-5.8-10.1-12.3-12.5c-0.3-0.1-0.6-0.1-0.9-0.1l-3.9,1.5C48.2,142.1,48.1,142.2,48.1,142.3z"/>
	<path class="st13" d="M53.1,140.8c-1.4-0.9-2.8-1.9-4-3.1l-3.3,0.5c1.8,2,2.1,2.5,2.2,4C49.8,141.9,51.5,141.5,53.1,140.8z"/>
	<path class="st85" d="M53.1,140.8c-1.4-0.9-2.8-1.9-4-3.1l-3.3,0.5c1.8,2,2.1,2.5,2.2,4C49.8,141.9,51.5,141.5,53.1,140.8z"/>
	<path class="st13" d="M45.9,132.2c0.8,0.1,1.5,0.3,2.1,0.8c0.7,0.5,1.2,0.6,2.5,0.4c0.1,0,0.2,0,0.2,0.1c0.1,0.2,0.2,0.4,0.1,0.6
		l1.8,1.3c0.5,0.3,0.5,0.8,0.2,1.3c-0.7,0.9-1.6,1.7-2.6,2.3c-0.8,0.5-1.2,0.5-2.5-0.3c-1.1,1-3.5-0.7-1.3-0.9c0.2,0,0.3,0,0.5-0.1
		c0-1-0.4-2.1-1.1-2.8c-0.2,0-0.4,0-0.6-0.1C45.3,133.9,46.8,134,45.9,132.2z"/>
	<path class="st85" d="M45.9,132.2c0.8,0.1,1.5,0.3,2.1,0.8c0.7,0.5,1.2,0.6,2.5,0.4c0.1,0,0.2,0,0.2,0.1c0.1,0.2,0.2,0.4,0.1,0.6
		l1.8,1.3c0.5,0.3,0.5,0.8,0.2,1.3c-0.7,0.9-1.6,1.7-2.6,2.3c-0.8,0.5-1.2,0.5-2.5-0.3c-1.1,1-3.5-0.7-1.3-0.9c0.2,0,0.3,0,0.5-0.1
		c0-1-0.4-2.1-1.1-2.8c-0.2,0-0.4,0-0.6-0.1C45.3,133.9,46.8,134,45.9,132.2z"/>
	<path class="st86" d="M51,135.5c0.4,0,0.7-0.3,0.7-0.7"/>
	<path class="st44" d="M47.5,133.8c-0.2,0.3-0.2,0.5-0.2,0.8c-0.1,0-0.2,0-0.3-0.1c0-0.3,0.1-0.6,0.2-0.8
		C47.3,133.7,47.4,133.7,47.5,133.8z"/>
	<path class="st87" d="M48.3,134.3c0.1,0.1,0.3,0,0.3-0.1c0.1-0.1,0-0.2-0.1-0.3l0,0c-0.1-0.1-0.3,0-0.3,0.1
		C48.1,134.1,48.1,134.2,48.3,134.3L48.3,134.3z"/>
	<path class="st13" d="M71,152.9c-0.2-0.6-1.7-1.2-2-1.3s-2.1,0.3-2,0.3l-8.1-2.3c-2-1.6-3.2-3.1-5.4-5.7c-2.3-1.5-5.1,1.9-2.3,3.7
		c2,1.7,4.1,3.2,6.4,4.5c0.2,0.2,0.5,0.4,0.8,0.4c0.1,0,0.2,0,0.3,0c0.2,0,8.3,0.6,8.3,0.6S71.1,153.5,71,152.9z"/>
	<path class="st85" d="M71,152.9c-0.2-0.6-1.7-1.2-2-1.3s-2.1,0.3-2,0.3l-8.1-2.3c-2-1.6-3.2-3.1-5.4-5.7c-2.3-1.5-5.1,1.9-2.3,3.7
		c2,1.7,4.1,3.2,6.4,4.5c0.2,0.2,0.5,0.4,0.8,0.4c0.1,0,0.2,0,0.3,0c0.2,0,8.3,0.6,8.3,0.6S71.1,153.5,71,152.9z"/>
	<path class="st83" d="M53.6,143.9c1.4,0.9,4.9,4.7,5.6,5.5c-0.6,1-1.4,1.9-2.4,2.6c-1-0.7-4.9-3.1-6.3-4.3
		C48.1,145.4,51.2,142.3,53.6,143.9z"/>
	<path class="st84" d="M53.6,143.9c1.4,0.9,4.9,4.7,5.6,5.5c-0.6,1-1.4,1.9-2.4,2.6c-1-0.7-4.9-3.1-6.3-4.3
		C48.1,145.4,51.2,142.3,53.6,143.9z"/>
	<path class="st80" d="M45.8,135c0,0,1.8,2.4,2.1,2.8c1.2,1.4,4.3,0,3.6-1.1c0,0-1.3-1.4-0.5-2.4c0.6,0.1,0.7,0.5,0.7,0.5
		c0.5,0.5,1.2,0.8,1.9,0.9c0.3,0.2,0.5,0.6,0.3,0.9l0,0c-0.8,1-3.6,3.2-5.2,2.9c-0.7-0.4-1.3-1-1.8-1.7c0,0-1.5-0.3-1.5-0.4
		L45.8,135z"/>
	<path class="st88" d="M51.7,134.7c0,0,0.3,0,0.3,0.2s-0.5,0.5-0.5,0.5L51.7,134.7z"/>
	<path class="st83" d="M58.3,148.3l1,1.1c-0.4,1.2-1.2,2.1-2.4,2.6l-1-0.7C57,150.6,57.8,149.5,58.3,148.3z"/>
	<path class="st84" d="M58.3,148.3l1,1.1c-0.4,1.2-1.2,2.1-2.4,2.6l-1-0.7C57,150.6,57.8,149.5,58.3,148.3z"/>
	<path class="st24" d="M57.9,160.3l12.1-3.1c0.1,0,0.1-0.1,0.1-0.1l0,0c-0.4-1.1-1.5-1.7-2.6-1.4l-10.2,2.6
		c-0.4,0.1-0.7,0.5-0.6,0.9c0,0,0,0,0,0.1l0.2,0.5C57,160.2,57.5,160.4,57.9,160.3z"/>
	<path class="st23" d="M73.3,172.6c0,0-3.3,0.7-3.7-0.6l-3-10.1l-3,0.8l3,10c0.4,1.3-2.8,2.2-2.8,2.2c-0.3,0.1-0.5,0.3-0.4,0.6l0,0
		l0.1,0.3l10.6-2.7l-0.1-0.3C73.9,172.6,73.6,172.5,73.3,172.6z"/>
	<path class="st25" d="M59.6,164.8l11.8-3c0.7-0.2,1.2-0.9,1.1-1.6v-0.1l0,0c-0.3-0.8-1.1-1.2-1.8-1l-11.8,3
		c-0.7,0.2-1.2,0.9-1.1,1.6v0.1l0,0C58,164.5,58.8,165,59.6,164.8z"/>
	<path class="st24" d="M57.8,164.2l14.7-3.7l-0.5-1.8c-0.2-0.5-0.7-0.8-1.2-0.7L58,161.2c-0.5,0.1-0.8,0.6-0.7,1.1c0,0,0,0,0,0.1
		L57.8,164.2z"/>
	<path class="st89" d="M44.2,144.7l0.7-0.3c0.3-0.1,3.1,4.9,4.1,6.7l6.8,7.1c1.3,2.2,2,4.2,1.7,4.4l0.3,1.6c-0.4,0.2-3-2.7-4.2-4.9
		l-6.5-7.3C46.1,150.1,43.9,144.9,44.2,144.7z"/>
	<polygon class="st25" points="74.3,174 63.7,176.6 63.5,175.9 74.1,173.2 	"/>
	<path class="st89" d="M44.5,143.9l-0.3,0.5c-0.2,0.3-0.5,0.4-0.8,0.2l-3.7-2.1c-0.3-0.1-0.4-0.5-0.2-0.7l0,0l0.3-0.5
		c0.2-0.3,0.5-0.4,0.8-0.2l3.7,2.1C44.6,143.3,44.7,143.7,44.5,143.9L44.5,143.9z"/>
	<polygon class="st24" points="59.9,163.7 58.2,164.1 56.8,159.4 58.5,158.9 	"/>
</g>
<path class="st90" d="M283.4,147.6c0,0,2.3,1.9,3.3,1.3s-1.6-1.9-1.6-1.9s1,0.5,1.2,0.3s-2-1.1-2-1.1L283.4,147.6z"/>
<path class="st76" d="M283.4,147.6c0,0,2.3,1.9,3.3,1.3s-1.6-1.9-1.6-1.9s1,0.5,1.2,0.3s-2-1.1-2-1.1L283.4,147.6z"/>
<path class="st91" d="M278.5,143.1l1.8-5c0.7-2.1,0.7-3.4-0.5-3.9c-0.9-0.2-1.7,0.1-1.8,0.5l-2.5,8.7c0,0,0,0,0,0.1
	c-0.1,0.3-0.1,0.6,0,0.8c0,0.1,0.1,0.2,0.2,0.3c0.2,0.3,0.6,0.6,1,0.8l7,2.6c0.6-0.1,1.1-0.6,1.1-1.3c0-0.2-0.1-0.4-0.2-0.5
	L278.5,143.1z"/>
<path class="st15" d="M264.7,178.6l-5.1-1.9c0.1-0.5,0.2-1,0.5-1.4l2.2,0.8c0,0,3.3,0.5,2.5,2.2L264.7,178.6z"/>
<path class="st92" d="M264.7,178.6l-5.1-1.9c0.1-0.5,0.2-1,0.5-1.4l2.2,0.8c0,0,3.3,0.5,2.5,2.2L264.7,178.6z"/>
<path class="st15" d="M264.7,178.6l-5.1-1.9l0.1-0.4l5.1,1.9v0.1L264.7,178.6z"/>
<path class="st90" d="M264.7,178.6l-5.1-1.9l0.1-0.4l5.1,1.9v0.1L264.7,178.6z"/>
<path class="st15" d="M250.7,173.6l5.1,1.9c0.3-0.4,0.4-0.9,0.5-1.4l-2.2-0.8c0,0-2.9-1.8-3.3,0.1L250.7,173.6z"/>
<path class="st92" d="M250.7,173.6l5.1,1.9c0.3-0.4,0.4-0.9,0.5-1.4l-2.2-0.8c0,0-2.9-1.8-3.3,0.1L250.7,173.6z"/>
<path class="st15" d="M250.7,173.6l5.1,1.9l0.2-0.4l-5-1.9c0,0-0.1,0-0.1,0.1L250.7,173.6z"/>
<path class="st92" d="M250.7,173.6l5.1,1.9l0.2-0.4l-5-1.9c0,0-0.1,0-0.1,0.1L250.7,173.6z"/>
<path class="st39" d="M263.1,146.5c-3.2,8.8-6.6,18.8-8.8,26.8c0.5,0.4,1.2,0.7,1.9,0.7c3.1-6.9,7.6-16.3,10.4-23
	c0.1-0.2,0.3-0.3,0.5-0.2l0,0c0.2,0.1,0.3,0.3,0.2,0.5c-1.9,5.7-5.1,16-7.2,24.2c0.6,0.4,1.2,0.7,1.9,0.7
	c3.5-8.1,7.7-17.6,10.8-26.1C273.4,148.1,263.8,144.6,263.1,146.5z"/>
<path class="st91" d="M266.7,134.6l0.6-4.8l4.6,0.8l3.5,1.3c1.1,0.5,4.7,2.5,4.7,2.5l-2,3.7c-2.5,5.5-4.4,8.5-5,11.8
	c-3.7-0.6-7.2-1.8-10.4-3.8C265.1,141.9,264.9,139.9,266.7,134.6z"/>
<path class="st13" d="M270.6,144.2c0,0,2.4,1.9,3.4,1.1s-1.7-1.9-1.7-1.9s1,0.4,1.2,0.3s-2-1.1-2-1.1
	C270.8,142.8,270.5,143.3,270.6,144.2z"/>
<path class="st76" d="M270.6,144.2c0,0,2.4,1.9,3.4,1.1s-1.7-1.9-1.7-1.9s1,0.4,1.2,0.3s-2-1.1-2-1.1
	C270.8,142.8,270.5,143.3,270.6,144.2z"/>
<path class="st91" d="M266,139.1l1-4.9l0.6-4.2c-0.6-0.2-1.3,0.1-1.5,0.7l0,0l-3.2,8.5c0,0,0,0,0,0.1c-0.1,0.3-0.1,0.6,0,0.8
	c0,0.1,0.1,0.2,0.1,0.3c0.2,0.4,0.5,0.6,0.9,0.8l6.8,3.1c0.6,0,1.2-0.5,1.1-1.2c0-0.2-0.1-0.4-0.1-0.5L266,139.1z"/>
<path class="st93" d="M281,125.3c1.4-0.4,2.1-5.7-2.9-5.5c0.3,0.2,0.7,0.5,0.7,0.9c-0.4-0.6-1-1-1.7-1c0.4,0.3,0.8,0.9,0.7,0.9
	c-0.2-0.2-0.6-1.2-2.6,0c-1.1,0-1.7,1.5-2,3.2c-0.2,1.5,0,3,0.3,4.4C275.7,126.7,281,125.3,281,125.3z"/>
<path class="st74" d="M273.7,128l-1.8,2.8c0,0,2,3.6,3.9,2.5c0.4-0.9,0.9-1.8,1.4-2.7L273.7,128z"/>
<path class="st74" d="M281.1,125.1c-0.4,1.6-0.9,3.1-1.6,4.6c-0.6,0.8-1.5,1.5-2.4,1.9c-0.7,0.1-1.4-0.1-2-0.6
	c-0.8-1-1.4-2.2-1.7-3.4l0.4-1.3c-1-0.2,0.2-3.5,0.9-1c0.2-0.4,0.9-1.9,0.9-1.9C276.7,123,280.6,124.2,281.1,125.1z"/>
<path class="st93" d="M277.8,128.8c-0.7-0.2-1.4,0-1.8,0.6c-0.9,1-1.2-0.4-1.2-0.4S277.5,127,277.8,128.8z"/>
<path class="st93" d="M277.8,128.8c0,0,0.6,0.1,0.8,1.5c0,0.5,0.8-0.4,0.8-0.4S278.7,127.6,277.8,128.8z"/>
<path class="st20" d="M279.4,126.6c0,0.2,0,0.3,0.2,0.4l0,0c0.2,0.1,0.3,0,0.4-0.2l0,0c0-0.2,0-0.3-0.2-0.4
	C279.6,126.3,279.5,126.4,279.4,126.6C279.4,126.5,279.4,126.5,279.4,126.6z"/>
<path class="st20" d="M276.8,125.8c0,0.2,0.1,0.3,0.2,0.4c0.2,0.1,0.3,0,0.4-0.2l0,0c0-0.2,0-0.3-0.2-0.4
	C277,125.5,276.8,125.6,276.8,125.8L276.8,125.8z"/>
<path class="st94" d="M278.3,127.3c-0.1,0.4,0.4,1-0.3,0.9"/>
<path class="st94" d="M278.1,129.6c-0.5,0.3-1.1,0.1-1.4-0.3c0,0,0-0.1-0.1-0.1"/>
<path class="st91" d="M272.1,130.3l-0.8,0.4c0.1,1.2,0.6,2.3,1.3,3.2l1-1.5C272.9,132,272.3,131.2,272.1,130.3z"/>
<path class="st91" d="M276.3,131.8l0.3,0.8c-0.8,0.8-1.9,1.4-3.1,1.6l0.2-1.8C274.6,132.6,275.6,132.4,276.3,131.8z"/>
<path class="st39" d="M275.3,133.1l-0.5,1.3c0,0.1-0.2,0.2-0.3,0.2c0,0,0,0-0.1,0c-0.5-0.3-0.8-0.8-1.1-1.3h-0.1
	c-0.5,0.3-1,0.4-1.6,0.3c-0.1,0-0.2-0.1-0.2-0.4l0.5-1.3c0-0.1,0.2-0.2,0.3-0.2l0,0c0.5,0.2,0.9,0.6,1.2,1h0.1
	c0.5-0.2,1.1-0.2,1.6-0.1C275.3,132.7,275.4,132.9,275.3,133.1z"/>
<path class="st39" d="M273.2,133.5L273.2,133.5c-0.2-0.1-0.3-0.3-0.3-0.6l0.1-0.2c0.1-0.2,0.3-0.3,0.6-0.3l0,0
	c0.2,0.1,0.3,0.3,0.3,0.6l-0.1,0.2C273.7,133.5,273.4,133.6,273.2,133.5z"/>
<path class="st93" d="M274.4,126.2c0,0,0,2.1,0.8,2.9s1,1,1,1l1.7,0.5c0.6-0.3,1.2-0.7,1.8-1.1c0,0.1-0.1,0.2-0.1,0.3
	c-0.5,1-1.3,1.8-2.3,2.4c-0.7,0.1-1.4-0.1-2-0.5c-0.6-0.6-1.9-2.7-1.8-3.1s0.8-2.2,0.8-2.2L274.4,126.2z"/>
<path class="st13" d="M237.8,123.8c1.4,0,1.7,1.1,0.5,0.6c-0.2-0.1,2.4,0.8,1.1,1.8s-1.1-0.1-2-1.2l-8.1-3c-0.7-0.3-0.9-1.1-0.7-1.7
	c0-0.1,0.1-0.2,0.2-0.3l0,0c0.5-0.7,1.4-0.8,2-0.4l0.1,0.1L237.8,123.8z"/>
<path class="st76" d="M237.8,123.8c1.4,0,1.7,1.1,0.5,0.6c-0.2-0.1,2.4,0.8,1.1,1.8s-1.1-0.1-2-1.2l-8.1-3c-0.7-0.3-0.9-1.1-0.7-1.7
	c0-0.1,0.1-0.2,0.2-0.3l0,0c0.5-0.7,1.4-0.8,2-0.4l0.1,0.1L237.8,123.8z"/>
<path class="st73" d="M230.3,119.1c-0.8,0.9-1.1,2-0.9,3.2l-8.4-2c-0.9-0.2-1.5-1.1-1.3-2l0,0l0,0c0.2-0.9,1.1-1.4,2-1.2
	L230.3,119.1z"/>
<path class="st95" d="M238,126.3l-0.2-0.1c-0.1-0.1-0.3,0-0.4,0.1l-1.1,2c-0.1,0.1,0,0.3,0.1,0.4l0,0l0.2,0.1L238,126.3z"/>
<polygon class="st95" points="239.6,123.7 239.4,123.6 236.6,128.9 236.8,129 "/>
<path class="st17" d="M239.3,121.1L239.3,121.1c-0.1,0-0.3,0.1-0.3,0.2l-0.5,4.3h0.3l0.8-4.2C239.5,121.2,239.4,121.1,239.3,121.1z"
	/>
<path class="st13" d="M238.3,125.3c-0.4,0.4-0.4,0.9-0.1,1.3c0.6,0.2,1.3-0.1,1.5-0.7c0.1-0.3,0.1-0.7-0.1-1
	C239.1,124.7,238.6,124.9,238.3,125.3z"/>
<path class="st76" d="M238.3,125.3c-0.4,0.4-0.4,0.9-0.1,1.3c0.6,0.2,1.3-0.1,1.5-0.7c0.1-0.3,0.1-0.7-0.1-1
	C239.1,124.7,238.6,124.9,238.3,125.3z"/>
<path class="st33" d="M235.5,126.5c2-1.4,1.9-4.8,0.8-7c0.3-0.1,0.4-0.3,0.4-0.6c0-0.5,0.4-0.3,0.7,0c-0.6-2.4-3.1-1.2-3.3-1.2
	c-0.5,0-1,0.1-1.5,0.2c-2.1,0.6-2.8,1.7-2.8,3.3c-1.7,4,3.3,5.2,3.9,6.1C234.1,127.8,234.8,126.9,235.5,126.5z"/>
<path class="st96" d="M235,145.9l11.5,4.8c1.5,0.6,2.3,2.2,1.8,3.8c0,0.1-0.1,0.2-0.1,0.3l-6.1,12.1c-1,0.2-1.8,0.2-2.1-0.8
	l4.1-12.1l-10.3-3.3C233.5,148.8,233.7,146.9,235,145.9z"/>
<path class="st97" d="M245.8,170.1c-0.3-0.4-2.7-1.9-3.3-3.4c-0.3,0-0.5,0.1-0.7,0.2c-1,0.7-1.8,0-2-0.9l0,0l0,0
	c0-0.1-0.1-0.1-0.2,0l0,0c-1.4,2.7-1.1,1.6-1.1,2.3c0,0.1,0,0.2,0,0.3l0,0c0,0,0,0.1,0.1,0.1l0,0c0,0,0,0.1,0.1,0.1l0,0
	c0,0,0.1,0,0.1,0.1c0.2,0.1,0.5,0.2,0.8,0.3h0.1c0.8,0.2,1.5,0.5,2.3,0.9c1.1,0.5,2.2,0.7,3.3,0.7h0.1l0,0h0.1l0,0
	C245.7,170.5,245.9,170.3,245.8,170.1z"/>
<path class="st98" d="M239.1,168.3c0.1-0.4,0-0.8-0.4-1.1c-0.2,0.3-0.3,0.7-0.3,1.1c0,0.1,0,0.2,0,0.3l0,0c0,0,0,0.1,0.1,0.1l0,0
	c0,0,0,0.1,0.1,0.1l0,0C238.9,168.7,239,168.5,239.1,168.3z"/>
<path class="st97" d="M239,168.3c0.1-0.3,0-0.7-0.3-0.8c-0.1,0.3-0.2,0.6-0.2,0.9c0,0.1,0,0.2,0,0.3l0,0l0,0
	C238.7,168.6,238.9,168.5,239,168.3z"/>
<path class="st98" d="M245.5,170.5c-1.3,0-2.5-0.3-3.7-0.9c-0.6-0.4-1.2-0.6-1.9-0.7c-0.4-0.1-0.8-0.2-1.1-0.3
	c-0.1,0-0.2-0.1-0.2-0.1c0,0.2,0.1,0.3,0.3,0.4c0.2,0.1,0.5,0.2,0.8,0.3c0.8,0.2,1.6,0.5,2.3,0.9c1.1,0.5,2.2,0.7,3.3,0.7
	c0.1,0,0.3,0,0.4-0.1C245.6,170.5,245.5,170.5,245.5,170.5z"/>
<path class="st98" d="M245.5,170.5c-1.3,0-2.5-0.3-3.7-0.9c-0.6-0.4-1.2-0.6-1.9-0.7c-0.4-0.1-0.8-0.2-1.1-0.3
	c-0.1,0-0.2-0.1-0.2-0.1c0,0.2,0.1,0.3,0.3,0.4c0.2,0.1,0.5,0.2,0.8,0.3c0.8,0.2,1.6,0.5,2.3,0.9c1.1,0.5,2.2,0.7,3.3,0.7
	c0.1,0,0.3,0,0.4-0.1C245.6,170.5,245.5,170.5,245.5,170.5z"/>
<path class="st99" d="M242.5,166.8c-0.3-0.1-0.5-0.1-0.8,0.2c0,0,1.2,2.4,2.1,2.1c0.1,0,0.3-0.1,0.4-0.2
	C243.5,168.4,242.9,167.6,242.5,166.8z"/>
<path class="st97" d="M242.5,166.8c-0.3,0-0.5,0.1-0.8,0.2c-0.1-0.1-0.1-0.2-0.1-0.4c0.2-0.1,0.5-0.2,0.8-0.2L242.5,166.8z"/>
<path class="st98" d="M243.5,168.7c0,0.1-0.1,0.1-0.1,0.1l0,0l-0.1-0.1l0,0c0-0.1,0.1-0.1,0.1-0.1L243.5,168.7L243.5,168.7z"/>
<path class="st98" d="M243,168.3c0,0.1-0.1,0.1-0.1,0.1s-0.1-0.1,0-0.1C242.9,168.3,243,168.2,243,168.3
	C243,168.2,243,168.2,243,168.3z"/>
<path class="st98" d="M242.6,167.8c0,0.1-0.1,0.1-0.1,0.1l0,0c-0.1,0-0.1-0.1-0.1-0.1l0,0c0-0.1,0.1-0.1,0.1-0.1
	C242.6,167.7,242.6,167.7,242.6,167.8L242.6,167.8z"/>
<path class="st98" d="M242.2,167.3c0,0.1-0.1,0.1-0.1,0.1c-0.1,0-0.1-0.1-0.1-0.1c0-0.1,0.1-0.1,0.1-0.1l0,0
	C242.2,167.2,242.3,167.3,242.2,167.3L242.2,167.3z"/>
<path class="st100" d="M242.5,167.7c0,0,0.4-0.4,0.4-0.2"/>
<path class="st100" d="M242.9,168.2c0,0,0.4-0.4,0.4-0.2"/>
<path class="st100" d="M243.4,168.7c0,0,0.4-0.4,0.4-0.2"/>
<path class="st100" d="M242.2,167.2c0,0,0.4-0.4,0.5-0.2"/>
<path class="st101" d="M245.2,170.1c-0.3-0.4-3.1-2.1-3.7-3.8c-0.3,0-0.6,0.1-0.8,0.2c-1.1,0.8-2,0-2.2-1l0,0l0,0
	c-0.1-0.1-0.1-0.1-0.2,0l0,0c-0.7,0.7-1.1,1.6-1.2,2.6c0,0.1,0,0.2,0.1,0.3l0,0v0.1l0,0c0,0,0,0.1,0.1,0.1l0,0c0,0,0.1,0,0.1,0.1
	c0.3,0.1,0.6,0.2,0.9,0.3h0.1c0.9,0.3,1.7,0.6,2.5,1c1.2,0.5,2.5,0.8,3.8,0.8h0.1h0.1l0,0C245.1,170.5,245.4,170.2,245.2,170.1z"/>
<path class="st98" d="M237.7,168.1c0.1-0.4,0-0.9-0.4-1.1c-0.2,0.4-0.3,0.8-0.3,1.2c0,0.1,0,0.2,0,0.3l0,0c0,0,0,0.1,0.1,0.1l0,0
	l0.1,0.1l0,0C237.4,168.5,237.6,168.3,237.7,168.1z"/>
<path class="st101" d="M237.6,168c0.1-0.3-0.1-0.7-0.4-0.9c-0.1,0.3-0.2,0.7-0.2,1c0,0.1,0,0.2,0,0.3l0,0l0,0
	C237.3,168.4,237.5,168.2,237.6,168z"/>
<path class="st98" d="M244.9,170.5c-1.4-0.1-2.9-0.4-4.2-1c-0.7-0.4-1.4-0.7-2.1-0.8c-0.4-0.1-0.9-0.2-1.3-0.4
	c-0.1,0-0.2-0.1-0.2-0.2c0,0.2,0.1,0.4,0.3,0.4c0.3,0.1,0.6,0.2,0.9,0.3c0.9,0.3,1.8,0.6,2.6,1c1.2,0.5,2.5,0.8,3.8,0.8
	c0.2,0,0.3,0,0.4-0.1C245,170.5,244.9,170.5,244.9,170.5z"/>
<path class="st98" d="M244.9,170.5c-1.4-0.1-2.9-0.4-4.2-1c-0.7-0.4-1.4-0.7-2.1-0.8c-0.4-0.1-0.9-0.2-1.3-0.4
	c-0.1,0-0.2-0.1-0.2-0.2c0,0.2,0.1,0.4,0.3,0.4c0.3,0.1,0.6,0.2,0.9,0.3c0.9,0.3,1.8,0.6,2.6,1c1.2,0.5,2.5,0.8,3.8,0.8
	c0.2,0,0.3,0,0.4-0.1C245,170.5,244.9,170.5,244.9,170.5z"/>
<path class="st99" d="M241.5,166.3c-0.3-0.2-0.6-0.1-0.8,0.2c0,0,1.4,2.6,2.4,2.4c0.2,0,0.3-0.1,0.5-0.2
	C242.7,168.1,242,167.3,241.5,166.3z"/>
<path class="st101" d="M241.6,166.3c-0.3,0-0.6,0.1-0.9,0.3c-0.1-0.1-0.1-0.3-0.1-0.4c0.3-0.1,0.6-0.2,0.9-0.2L241.6,166.3z"/>
<path class="st98" d="M242.6,168.5c0,0.1-0.1,0.1-0.2,0.1s-0.1-0.1-0.1-0.2c0-0.1,0.1-0.1,0.2-0.1l0,0
	C242.6,168.4,242.6,168.4,242.6,168.5z"/>
<path class="st98" d="M242.1,168c0,0.1-0.1,0.1-0.1,0.1c-0.1,0-0.1-0.1-0.1-0.1l0,0c0-0.1,0.1-0.1,0.1-0.1
	C242.1,167.8,242.1,167.9,242.1,168C242.1,167.9,242.1,168,242.1,168z"/>
<path class="st98" d="M241.6,167.4c0,0.1-0.1,0.1-0.2,0.1s-0.1-0.1-0.1-0.2c0-0.1,0.1-0.1,0.2-0.1l0,0
	C241.6,167.3,241.7,167.4,241.6,167.4z"/>
<path class="st98" d="M241.2,166.9c0,0.1-0.1,0.1-0.1,0.1c-0.1,0-0.1-0.1-0.1-0.1l0,0c0-0.1,0.1-0.1,0.1-0.1
	C241.2,166.7,241.3,166.8,241.2,166.9C241.2,166.8,241.2,166.8,241.2,166.9z"/>
<path class="st100" d="M241.6,167.3c0,0,0.4-0.4,0.5-0.2"/>
<path class="st100" d="M242,167.9c0,0,0.4-0.4,0.5-0.2"/>
<path class="st100" d="M242.5,168.5c0,0,0.4-0.4,0.5-0.2"/>
<path class="st100" d="M241.1,166.8c0,0,0.5-0.4,0.6-0.2"/>
<path class="st102" d="M233.2,145.3l12.1,5c1.5,0.5,2.3,2.2,1.8,3.8c0,0.1-0.1,0.2-0.2,0.3l-6.2,12.1c-1,0.2-1.8,0.1-2.1-0.8
	l4.2-12.1l-10.9-3.5C231.7,148.1,231.9,146.3,233.2,145.3z"/>
<path class="st103" d="M232.3,129.5c-3.3,3.5-1.6,8.1,0,14.3c0,1.2-0.1,2.4-0.4,3.6c2.5,1.5,5.5,1.7,8.2,0.7
	c-0.8-3.8,1-11.8-2.9-17.3c-0.2-0.2-0.4-0.4-0.7-0.6l-4-0.8C232.5,129.3,232.4,129.4,232.3,129.5z"/>
<path class="st104" d="M232.3,129.5c-3.3,3.5-1.6,8.1,0,14.3c0,1.2-0.1,2.4-0.4,3.6c2.5,1.5,5.5,1.7,8.2,0.7
	c-0.8-3.8,1-11.8-2.9-17.3c-0.2-0.2-0.4-0.4-0.7-0.6l-4-0.8C232.5,129.3,232.4,129.4,232.3,129.5z"/>
<path class="st13" d="M237.3,130.7c-0.6-1.5-1.1-3.1-1.5-4.8l-2.9-1.3c0.4,2.7,0.3,3.2-0.5,4.6C234,130,235.6,130.5,237.3,130.7z"/>
<path class="st104" d="M237.3,130.7c-0.6-1.5-1.1-3.1-1.5-4.8l-2.9-1.3c0.4,2.7,0.3,3.2-0.5,4.6C234,130,235.6,130.5,237.3,130.7z"
	/>
<path class="st13" d="M236.3,119.6c0.6,0.5,1,1.1,1.3,1.8c0.3,0.9,0.6,1.2,1.8,1.7c0.1,0,0.1,0.1,0.1,0.2c0,0.2-0.1,0.4-0.3,0.5
	l0.7,2c0.2,0.5-0.1,0.9-0.6,1.2c-1.1,0.4-2.3,0.6-3.4,0.6c-0.9,0-1.2-0.1-1.8-1.5c-1.5,0.3-2.4-2.4-0.5-1.5c0.1,0.1,0.3,0.1,0.4,0.2
	c0.6-0.9,0.9-1.9,0.7-3c-0.3-0.2-2.3-0.3-2.8,0.4C232.3,121.1,236,121.6,236.3,119.6z"/>
<path class="st104" d="M236.3,119.6c0.6,0.5,1,1.1,1.3,1.8c0.3,0.9,0.6,1.2,1.8,1.7c0.1,0,0.1,0.1,0.1,0.2c0,0.2-0.1,0.4-0.3,0.5
	l0.7,2c0.2,0.5-0.1,0.9-0.6,1.2c-1.1,0.4-2.3,0.6-3.4,0.6c-0.9,0-1.2-0.1-1.8-1.5c-1.5,0.3-2.4-2.4-0.5-1.5c0.1,0.1,0.3,0.1,0.4,0.2
	c0.6-0.9,0.9-1.9,0.7-3c-0.3-0.2-2.3-0.3-2.8,0.4C232.3,121.1,236,121.6,236.3,119.6z"/>
<path class="st44" d="M236.7,121.7c-0.3,0.1-0.5,0.4-0.7,0.6c-0.1,0-0.2-0.1-0.2-0.2c0.2-0.3,0.4-0.5,0.7-0.6
	C236.6,121.5,236.7,121.6,236.7,121.7z"/>
<path class="st105" d="M237,122.6c0.1,0.1,0.2,0.2,0.3,0.1s0.2-0.2,0.1-0.3l0,0c-0.1-0.1-0.2-0.2-0.3-0.1l0,0
	C237,122.3,236.9,122.5,237,122.6z"/>
<path class="st13" d="M247.8,142c-0.2-0.6-1.9,0.2-3-0.3c-0.2-0.1,0.9-0.7,0.7-0.9c-0.6,0-1.2,0.3-1.7,0.6l-6.9-0.1
	c-0.6-2.5-1-5.2-1.2-7.8c-1-2.5-5.2-1-4,2c0.7,2.5,1.5,4.9,2.6,7.2c0,0.3,0.2,0.6,0.4,0.8c0.1,0.1,0.2,0.2,0.3,0.2
	c0.2,0.1,0.5,0.2,0.7,0.1l8.2-1l0,0c0.5,0.3,1.1,0.4,1.6,0.4C246.2,143.2,248.1,142.7,247.8,142z"/>
<path class="st104" d="M247.8,142c-0.2-0.6-1.9,0.2-3-0.3c-0.2-0.1,0.9-0.7,0.7-0.9c-0.6,0-1.2,0.3-1.7,0.6l-6.9-0.1
	c-0.6-2.5-1-5.2-1.2-7.8c-1-2.5-5.2-1-4,2c0.7,2.5,1.5,4.9,2.6,7.2c0,0.3,0.2,0.6,0.4,0.8c0.1,0.1,0.2,0.2,0.3,0.2
	c0.2,0.1,0.5,0.2,0.7,0.1l8.2-1l0,0c0.5,0.3,1.1,0.4,1.6,0.4C246.2,143.2,248.1,142.7,247.8,142z"/>
<path class="st103" d="M236,133.6c0.5,1.5,0.9,3,1.1,4.5c-1.3,0.8-2.8,1.3-4.3,1.6c-0.5-1.4-1-2.9-1.3-4.4c-0.3-1.3,0.4-2.6,1.7-3
	C234.3,132,235.5,132.6,236,133.6z"/>
<path class="st104" d="M236,133.6c0.5,1.5,0.9,3,1.1,4.5c-1.3,0.8-2.8,1.3-4.3,1.6c-0.5-1.4-1-2.9-1.3-4.4c-0.3-1.3,0.4-2.6,1.7-3
	C234.3,132,235.5,132.6,236,133.6z"/>
<path class="st58" d="M239.7,125.1l0.3,1c0,0,0.3,0.4-0.4,0.9c-0.3,0.3-0.7,0.5-1.1,0.5c-0.6,0.1-1.3,0.2-1.9,0.4
	c-1,0.2-2-0.3-2.3-1.3c-0.1-0.4,1.7-1.3,2-1.9c0.2-0.4,1.4-0.8,1.4-0.8l1.5-0.1L239.7,125.1z"/>
<path class="st106" d="M238.6,125c0.3,0.2,0.8,0.1,1-0.2"/>
<path class="st24" d="M232.2,148.6l11.3,3.6c0.1,0,0.1,0,0.1-0.1l0,0c0.3-1.1-0.2-2.2-1.3-2.5l0,0l-9.5-3c-0.4-0.1-0.9,0.1-1,0.5
	l-0.2,0.5C231.6,148.1,231.8,148.5,232.2,148.6z"/>
<path class="st23" d="M237.6,167c0,0-3-1-2.6-2.4l3.2-10.1l-2.9-0.9l-3.2,10.1c-0.4,1.3-3.5,0.5-3.5,0.5c-0.3-0.1-0.6,0.1-0.7,0.3
	l0,0l-0.1,0.3l9.9,3.1l0.1-0.3C238.1,167.4,237.9,167.1,237.6,167z"/>
<path class="st91" d="M242,156.8l-11-3.5c-0.7-0.2-1.2-1-0.9-1.8l0,0c0.2-0.7,1-1.2,1.8-0.9l11,3.5c0.7,0.2,1.2,1,0.9,1.8l0,0
	C243.5,156.7,242.7,157.1,242,156.8z"/>
<path class="st24" d="M230,151.9l13.7,4.4l0.6-1.8c0.1-0.5-0.1-1-0.6-1.2l-11.9-3.8c-0.5-0.1-1,0.1-1.2,0.6L230,151.9z"/>
<path class="st17" d="M230,128.3l0.7,0.1c0.3,0-0.3,5.7-0.4,7.9l1.4,9.5c-0.2,2.5-0.7,4.6-1.1,4.6l-0.6,1.5c-0.4,0-0.9-3.9-0.6-6.4
	l-1.1-9.5C228.5,133.9,229.6,128.3,230,128.3z"/>
<rect x="232.6" y="161.6" transform="matrix(0.3024 -0.9532 0.9532 0.3024 3.5408 338.3984)" class="st107" width="0.8" height="10.4"/>
<path class="st17" d="M227.9,123.3l0.5-0.2c0.3-0.1,0.6,0,0.8,0.3l1.8,3.7c0.1,0.3,0,0.6-0.3,0.8l-0.5,0.2c-0.3,0.1-0.6,0-0.8-0.3
	l-1.8-3.7C227.5,123.8,227.6,123.4,227.9,123.3z"/>
<path class="st37" d="M216.4,163.6l-5.4-1.2c0-0.5,0.1-1,0.3-1.5l2.4,0.5c0,0,3.5,0.1,2.8,1.9L216.4,163.6z"/>
<path class="st38" d="M216.4,163.6l-5.4-1.2V162l5.4,1.2c0.1,0,0.1,0.1,0.1,0.1L216.4,163.6z"/>
<path class="st39" d="M215.6,132.5l-1,3.5c-0.1,4.7-1.5,7.6-3.4,25c0.6,0.4,1.5,0.6,2.2,0.4c0.8-4.5,8.4-27.5,8.8-27.4L215.6,132.5z
	"/>
<path class="st40" d="M217.3,163.8l-5.4-1.2c0-0.5,0.1-1,0.3-1.5l2.4,0.5c0,0,3.5,0.1,2.8,1.9L217.3,163.8z"/>
<path class="st15" d="M217.3,163.8l-5.4-1.2v-0.4l5.4,1.2c0.1,0,0.1,0.1,0.1,0.1L217.3,163.8z"/>
<path class="st41" d="M216.1,131.6l-1.2,3.4c-0.9,2.6-0.9,7.2-2.8,26.1c0.6,0.5,1.4,0.6,2.2,0.4c0.6-1.8,8.4-25.9,8.4-25.9
	L216.1,131.6z"/>
<path class="st73" d="M220.5,115.2c-1.3,0.3-4.5,4.4-4.5,16.5c-0.8,2.2-1.2,3.4-1.2,3.4c2.4,1.1,5.1,1.7,7.8,1.7
	c0,0,4.3-15.7,2.2-18.4C223.7,116.8,222.2,115.7,220.5,115.2z"/>
<path class="st108" d="M224,113.2c2.4,0.9,5.3-1.2,6.5-3.5c0.9-0.5,1.9-1.5,0.4-3.8c-0.2-0.3-4.2-1.8-5.6-0.9
	c-4.5,0.9-2.5,5.9-2.9,7C222,112.7,223.3,112.8,224,113.2z"/>
<path class="st13" d="M224.7,118.3c-0.1-1.7,0-3.5,0.3-5.2l-2.4-2.3c-0.6,2.8-0.9,3.3-2.2,4.4C221.8,116.4,223.2,117.4,224.7,118.3z
	"/>
<path class="st76" d="M224.7,118.3c-0.1-1.7,0-3.5,0.3-5.2l-2.4-2.3c-0.6,2.8-0.9,3.3-2.2,4.4C221.8,116.4,223.2,117.4,224.7,118.3z
	"/>
<path class="st13" d="M230.4,109.7c-0.1,0.8-0.3,1.5-0.8,2.2c-0.6,0.7-0.7,1.2-0.4,2.5c0,0.1,0,0.2-0.1,0.2
	c-0.2,0.1-0.4,0.2-0.6,0.1l-1.4,1.8c-0.3,0.5-0.9,0.5-1.4,0.2c-1-0.7-1.9-1.6-2.6-2.6c-0.5-0.8-0.6-1.2,0.3-2.5
	c-1.1-1.1,0.6-3.5,1-1.3c0,0.2,0,0.3,0.1,0.5c1.1-0.1,2.1-0.6,3-1.2c0.3-0.2,0.5-1.2,0.7-1.5c0-0.4-1.7-0.9-2.7-0.7
	C226.8,107.2,228.1,107.3,230.4,109.7z"/>
<path class="st76" d="M230.4,109.7c-0.1,0.8-0.3,1.5-0.8,2.2c-0.6,0.7-0.7,1.2-0.4,2.5c0,0.1,0,0.2-0.1,0.2
	c-0.2,0.1-0.4,0.2-0.6,0.1l-1.4,1.8c-0.3,0.5-0.9,0.5-1.4,0.2c-1-0.7-1.9-1.6-2.6-2.6c-0.5-0.8-0.6-1.2,0.3-2.5
	c-1.1-1.1,0.6-3.5,1-1.3c0,0.2,0,0.3,0.1,0.5c1.1-0.1,2.1-0.6,3-1.2c0.3-0.2,0.5-1.2,0.7-1.5c0-0.4-1.7-0.9-2.7-0.7
	C226.8,107.2,228.1,107.3,230.4,109.7z"/>
<path class="st109" d="M227.1,114.9c0.1,0.4,0.4,0.7,0.8,0.7"/>
<path class="st44" d="M228.8,111.3c-0.3-0.1-0.6-0.2-0.9-0.2c0-0.1,0-0.2,0.1-0.3c0.3,0,0.6,0.1,0.9,0.2
	C228.9,111.1,228.9,111.2,228.8,111.3z"/>
<path class="st78" d="M228.2,112.1c-0.1,0.1,0,0.3,0.1,0.3l0,0c0.1,0.1,0.3,0,0.3-0.1l0,0c0.1-0.1,0-0.3-0.1-0.3
	C228.5,111.9,228.3,112,228.2,112.1C228.3,112.1,228.2,112.1,228.2,112.1L228.2,112.1z"/>
<path class="st108" d="M231,106.1c0,0-0.2-0.6-1.4-1.2c0.4,0.3,0.7,0.7,0.9,1.1C230.3,106.1,231,106.1,231,106.1z"/>
<path class="st108" d="M230.7,106.2c0,0-0.2-0.6-1.4-1.2c0.4,0.3,0.7,0.7,0.9,1.2C230.1,106.2,230.7,106.2,230.7,106.2z"/>
<path class="st108" d="M230.3,105.9c-0.4-0.5-1-0.9-1.6-1c0.4,0.3,0.7,0.6,1,1C229.7,106,230.3,105.9,230.3,105.9z"/>
<path class="st73" d="M221.2,114.5l-1.2,0.8c1.3,1.4,2.7,2.7,4.1,3.9l0.6-0.9C223.7,116.9,222.5,115.6,221.2,114.5z"/>
<path class="st22" d="M219.8,115.4l3,5l-1.8,9.4c0,0-4.4-0.2-5.1-1.4c-0.2,0.3-0.1,1.7-0.1,1.7c1.4,0.9,3,1.4,4.6,1.5
	c0,0-1.8,11.6-2.6,12.2c0.8,0.6,1.7,1,2.7,1.1c0,0,5.4-19.4,4.6-22.4c-0.4-1.1-1-2.2-1.6-3.1L219.8,115.4z"/>
<path class="st73" d="M226.1,125.8l-3.2,1.3l-4.2-7.1c-0.5-0.8-0.2-1.8,0.6-2.3l0,0c0.8-0.5,1.8-0.2,2.3,0.6l0,0L226.1,125.8z"/>
<path class="st13" d="M233.7,127.8c1.3-0.5,2-0.5,0.7,0.4c-0.1,0.1,3.3-1.8,2.6-0.3c-0.6,1.2-2,1.7-3.3,1.2l-9.8-1.4
	c-0.9-0.2-1.4-0.7-1.2-1.6l0,0c0.2-0.8,1-1.3,1.8-1.2c0.1,0,0.1,0,0.2,0L233.7,127.8z"/>
<path class="st76" d="M233.7,127.8c1.3-0.5,2-0.5,0.7,0.4c-0.1,0.1,3.3-1.8,2.6-0.3c-0.6,1.2-2,1.7-3.3,1.2l-9.8-1.4
	c-0.9-0.2-1.4-0.7-1.2-1.6l0,0c0.2-0.8,1-1.3,1.8-1.2c0.1,0,0.1,0,0.2,0L233.7,127.8z"/>
<path class="st110" d="M228.4,108c0,0-0.6,1.5-0.8,1.7s-3.1,1.6-3.2,1.1c-0.2-1.6-1.1-1.7-1.3,0.1c0.3,1.5-0.1-0.5-0.9,1.4
	c0.1-0.6-0.5-4.1,0.5-5.6C223.3,106.7,227.8,107.2,228.4,108z"/>
<path class="st15" d="M283.1,188.2l4.7,2.5c0.3-0.4,0.5-0.8,0.7-1.3l-2-1.1c0,0-2.6-2.1-3.3-0.3L283.1,188.2z"/>
<path class="st111" d="M283.1,188.2l4.7,2.5c0.3-0.4,0.5-0.8,0.7-1.3l-2-1.1c0,0-2.6-2.1-3.3-0.3L283.1,188.2z"/>
<path class="st15" d="M283.1,188.2l4.7,2.5l0.3-0.3l-4.7-2.5h-0.1l0,0L283.1,188.2z"/>
<path class="st111" d="M283.1,188.2l4.7,2.5l0.3-0.3l-4.7-2.5h-0.1l0,0L283.1,188.2z"/>
<path class="st15" d="M296.1,195l-4.7-2.5c0.1-0.5,0.3-0.9,0.7-1.3l2.1,1.1c0,0,3.2,0.9,2.1,2.5L296.1,195z"/>
<path class="st111" d="M296.1,195l-4.7-2.5c0.1-0.5,0.3-0.9,0.7-1.3l2.1,1.1c0,0,3.2,0.9,2.1,2.5L296.1,195z"/>
<path class="st15" d="M296.1,195l-4.7-2.5l0.1-0.4l4.7,2.5v0.1L296.1,195z"/>
<path class="st111" d="M296.1,195l-4.7-2.5l0.1-0.4l4.7,2.5v0.1L296.1,195z"/>
<path class="st39" d="M307.8,166.8c-0.2,0.3,0.1,0.8-0.1,1.1c-4.3,8.1-9.5,17.4-13.9,24.4c-0.7-0.1-1.3-0.4-1.8-0.9
	c2.9-6.9,6.8-16.4,9.9-22.9c0.1-0.2,0-0.4-0.1-0.5l0,0c-0.2-0.1-0.4,0-0.5,0.2l0,0c-2.9,5.2-8.3,14.4-12.8,21.4
	c-0.7-0.1-1.3-0.5-1.8-0.9c3.5-7.9,7.9-17.7,12-25.6c0.2-0.3,0.7-0.1,0.9-0.4L307.8,166.8z"/>
<path class="st112" d="M307.2,171.1c-0.4,0.4-0.6,0.7-0.5,0.9s0.3-0.1,0.6-0.3c0,0-0.8,2.1-0.2,2.2s1.4-0.7,1.9-1.7s0.4-1.8-0.2-1.9
	c-0.4,0-0.7,0.2-1,0.4C307.6,170.7,307.4,170.9,307.2,171.1z"/>
<path class="st113" d="M313.6,163c0.1-0.2,0.2-0.4,0.3-0.6l2.3-7.8c0.2-0.8-0.2-1.7-1.1-1.9s-1.7,0.2-1.9,1.1l0,0l-2.2,7.5v0.1
	l-3.5,9.3c0.3,0.7,1,1,1.7,0.7c0.1,0,0.2-0.1,0.3-0.1L313.6,163z"/>
<path class="st112" d="M296.1,165.3c-0.1,0.6-0.3,0.9-0.4,0.9s-0.1-0.3-0.1-0.7c0,0-1.3,1.9-1.7,1.5s-0.2-1.5,0.3-2.5s1.3-1.4,1.6-1
	c0.2,0.3,0.3,0.7,0.2,1C296.1,164.7,296.2,165,296.1,165.3z"/>
<path class="st113" d="M298.9,155.3c0.1-0.2,0.2-0.4,0.3-0.6l5.2-6.3c0.6-0.6,1.5-0.7,2.2-0.2c0.6,0.5,0.7,1.4,0.2,2.1l-5,6v0.1
	l-5.5,8.3c-1.3,0-1.4-0.6-1.6-1.3L298.9,155.3z"/>
<path class="st114" d="M309.4,148.8l3.5,1.8l0.6-1.1c-0.7-1.2-2.1-1.9-3.5-1.8L309.4,148.8z"/>
<path class="st112" d="M309.7,148.1c0.8-0.8,1.4-1.7,2-2.7l1.5,0.7l0,0l0.3,0.2l1.2,0.6c-0.3,0.4-0.8,0.7-1.1,1.3
	c-0.2,0.4-0.2,1-0.4,1.8C311.3,154.6,306.6,151.4,309.7,148.1z"/>
<path class="st113" d="M305.6,147.9c1.1,0.1,3.2,0,4.1,0.2c0.1,0.8,1.3,1.6,1.3,1.6c0.7,0.3,1.5,0.3,2.2,0.1
	c0.8,1.1,1.7,2.1,2.6,3.1c0,0-7.5,11.5-7.6,13.6c-1.7-0.2-3.3-0.7-4.7-1.5c-1.6-0.6-3.1-1.7-4.2-3.1
	C301.1,160.5,303.2,151.2,305.6,147.9z"/>
<path class="st39" d="M311.3,151.1c-0.7,0-1.3-0.3-1.7-0.9l0.6-1.2c0.5,0.5,1.1,0.8,1.7,0.9L311.3,151.1z"/>
<polygon class="st39" points="307.3,159.7 305,161.4 305,158.5 310,150.6 310.8,151 "/>
<path class="st52" d="M307.7,168c0.2-0.4,0.4-0.9,0.5-1.4c-1.1,0-8.4-4-8.9-4.6l-0.7,1.3C298.4,163.5,307.5,168.2,307.7,168z"/>
<path class="st115" d="M307.7,168c0.2-0.4,0.4-0.9,0.5-1.4c-1.1,0-8.4-4-8.9-4.6l-0.7,1.3C298.4,163.5,307.5,168.2,307.7,168z"/>
<path class="st54" d="M303.6,164.1l0.1,0.1c0.5,0.3,0.7,0.8,0.4,1.3l0,0c-0.3,0.5-0.8,0.7-1.3,0.4l-0.1-0.1
	c-0.5-0.3-0.7-0.8-0.4-1.3l0,0C302.5,164,303.1,163.8,303.6,164.1z M302.8,165.6L302.8,165.6c0.4,0.2,0.9,0.1,1.1-0.3l0,0l0,0
	c0.2-0.3,0.1-0.8-0.3-1l0,0h-0.1c-0.4-0.2-0.8-0.1-1,0.3l0,0l0,0C302.3,165,302.5,165.4,302.8,165.6L302.8,165.6L302.8,165.6z"/>
<path class="st18" d="M317.9,144.2c-0.8,1.8-2.9,2.7-4.8,2.1l-0.3-0.1c-1.8-0.9-2.2-3.2-1.3-5.2c0.1-0.4,0.3-0.8,0.6-1.1
	c0.4-0.6,1-1.1,1.6-1.4c1-0.3,2.1-0.2,3,0.4l0.3,0.2C319.2,140.1,319.3,141.6,317.9,144.2z"/>
<path class="st18" d="M317,145h0.1c-0.2-0.1,0-0.7,0.1-0.9l1-2.7c0.1-0.2,0.3-0.3,0.5-0.2l0,0l0.2,0.1c0.2,0.1,0.3,0.3,0.2,0.5l0,0
	c-0.3,1.1-0.9,2-1.6,2.9C317.5,145,317.2,145.1,317,145L317,145z"/>
<path class="st13" d="M316.2,146.3c-0.3,0.5-0.8,0.8-1.2,1.1c-0.3,0.2-0.6,0.3-0.9,0.5c-0.7,0.5-1.6,0.5-2.4,0.2
	c-1.1-0.6-1.1-1.3-1.2-2.1c0-0.3,0-0.7,0-1c0-0.6,0.1-1.2,0.3-1.7c-0.7-0.6,0.2-2.5,0.4-1c0.3-0.5,0.8-1.8,1.1-1.5
	c3.4,2.3,4.9,1.4,4.9,2.3c0,0.6-0.5,1.4-0.4,2.1C318.4,144.6,317,146.6,316.2,146.3z"/>
<path class="st116" d="M316.2,146.3c-0.3,0.5-0.8,0.8-1.2,1.1c-0.3,0.2-0.6,0.3-0.9,0.5c-0.7,0.5-1.6,0.5-2.4,0.2
	c-1.1-0.6-1.1-1.3-1.2-2.1c0-0.3,0-0.7,0-1c0-0.6,0.1-1.2,0.3-1.7c-0.7-0.6,0.2-2.5,0.4-1c0.3-0.5,0.8-1.8,1.1-1.5
	c3.4,2.3,4.9,1.4,4.9,2.3c0,0.6-0.5,1.4-0.4,2.1C318.4,144.6,317,146.6,316.2,146.3z"/>
<path class="st20" d="M315.1,144.3c-0.1,0.1-0.2,0.2-0.4,0.1c-0.1-0.1-0.2-0.2-0.1-0.4c0.1-0.1,0.2-0.2,0.4-0.1l0,0
	C315.1,144,315.2,144.2,315.1,144.3z"/>
<ellipse transform="matrix(0.4614 -0.8872 0.8872 0.4614 41.4199 354.2499)" class="st20" cx="312.5" cy="143" rx="0.3" ry="0.3"/>
<path class="st94" d="M313,144.7c-0.1,0.2-0.9,0.3-0.4,0.7"/>
<path class="st94" d="M311.7,146c0.2,0.5,0.8,0.8,1.3,0.7"/>
<path class="st18" d="M314,141.6c0,0-1.7-0.9-1.5-2.5s1.2-1.9,1.2-1.9c0.4,0.7,1,1.2,1.7,1.5c1.2,0.6,0,2.2,0,2.2L314,141.6z"/>
<path class="st18" d="M313.7,142c-0.7-0.3-2.1-0.7-1.9-2.3s1-1.9,1-1.9c0.5,0.6,1.2,1.2,1.9,1.5c1.2,0.6,2.5,3.4,2.5,3.4
	C316.1,142.6,314.9,142.3,313.7,142z"/>
<path class="st18" d="M315.1,141.7c0,0-2-0.4-1.8-2s1.2-1.9,1.2-1.9c0.4,0.7,1,1.2,1.7,1.5c1.2,0.6,0,2.2,0,2.2L315.1,141.7z"/>
<path class="st113" d="M313.3,149.4c-0.5,0.5-1.2,0.6-1.9,0.3l-0.3,1.8c1.1,0,2.1-0.1,2.5-1.1L313.3,149.4z"/>
<path class="st113" d="M310.6,149.3l-1,1.4c-0.8-0.7-1.1-1.8-0.8-2.8l1.2-0.2C309.8,148.4,310.1,149,310.6,149.3z"/>
<path class="st23" d="M288,170.7l-0.6,1.2c-0.3,0.7-1.2,1-1.9,0.7l0,0l-0.2-0.1l-0.5,1l1.2,0.6c0.7,0.3,1.6,0.1,1.9-0.6l1-2.1
	L288,170.7z"/>
<path class="st23" d="M272.8,163.2l-0.6,1.2c-0.3,0.7,0,1.6,0.7,1.9l0.2,0.1l-0.5,1l-1.2-0.6c-0.7-0.3-1-1.2-0.7-1.9l0,0l1-2.1
	L272.8,163.2z"/>
<path class="st24" d="M274.4,164l-2.6-1.3l1.4-2.8c0.3-0.6,1-0.8,1.6-0.5l1.5,0.8L274.4,164z"/>
<path class="st24" d="M286.4,169.9l2.6,1.3l1.4-2.8c0.3-0.6,0-1.3-0.5-1.6l-1.5-0.8L286.4,169.9z"/>
<path class="st23" d="M277.6,183.3c0,0-2.8-1.5-2.2-2.7l4.7-9.5l-2.7-1.3l-4.7,9.5c-0.6,1.2-3.5-0.1-3.5-0.1c-0.3-0.1-0.6,0-0.7,0.3
	l-0.1,0.3l9.3,4.6l0.1-0.3C277.9,183.8,277.8,183.5,277.6,183.3z"/>
<path class="st117" d="M283.4,173.9l-10.3-5.1c-0.7-0.3-1-1.2-0.6-1.9l0,0c0.3-0.7,1.2-1,1.9-0.6l10.3,5.1c0.7,0.3,1,1.2,0.6,1.9
	l0,0C285,173.9,284.2,174.2,283.4,173.9z"/>
<path class="st24" d="M272.3,167.2l12.9,6.3l0.8-1.7c0.2-0.5,0-1-0.4-1.3l-11.2-5.5c-0.5-0.2-1,0-1.3,0.4L272.3,167.2z"/>
<path class="st17" d="M285.1,151.5l4.6,2.3c2,0.9,3,3.2,2.3,5.3l-3.2,9c-0.9,2.2-3.4,3.3-5.6,2.4c-0.1-0.1-0.3-0.1-0.4-0.2l-6.6-3.3
	c-2.2-1-3.1-3.5-2.1-5.7c0.1-0.2,0.1-0.3,0.2-0.4l5.2-8.1C280.7,151.1,283.1,150.5,285.1,151.5z"/>
<rect x="272.3" y="177.1" transform="matrix(0.4407 -0.8976 0.8976 0.4407 -11.1717 346.7107)" class="st118" width="0.8" height="10.4"/>
<path class="st23" d="M317.5,190.5l-0.6,1c-0.4,0.6-1.1,0.7-1.7,0.4l0,0l-0.2-0.1l-0.5,0.8l1,0.7c0.6,0.4,1.4,0.2,1.8-0.4l1.2-1.8
	L317.5,190.5z"/>
<path class="st23" d="M305,182.2l-0.6,1c-0.4,0.6-0.2,1.4,0.4,1.7l0,0l0.2,0.1l-0.5,0.8l-1-0.6c-0.6-0.4-0.7-1.2-0.4-1.8l1.2-1.8
	L305,182.2z"/>
<path class="st24" d="M306.4,183.1l-2.1-1.4l1.5-2.3c0.3-0.5,1-0.6,1.5-0.3l1.3,0.8L306.4,183.1z"/>
<path class="st24" d="M316.2,189.6l2.1,1.4l1.5-2.3c0.3-0.5,0.2-1.1-0.3-1.5l0,0l-1.3-0.8L316.2,189.6z"/>
<path class="st23" d="M307,200.3c0,0-2.3-1.6-1.6-2.6l5.2-7.8l-2.2-1.5l-5.2,7.8c-0.6,1-3-0.5-3-0.5c-0.2-0.1-0.5-0.1-0.7,0.1l0,0
	l-0.1,0.2l7.7,5.1l0.1-0.2C307.3,200.7,307.2,200.5,307,200.3L307,200.3z"/>
<path class="st117" d="M313.1,192.8l-8.5-5.6c-0.6-0.4-0.7-1.2-0.4-1.7l0,0c0.4-0.6,1.2-0.7,1.7-0.4l8.5,5.6
	c0.6,0.4,0.7,1.2,0.4,1.7l0,0C314.5,193,313.7,193.1,313.1,192.8z"/>
<path class="st24" d="M304.1,185.7l10.6,7l0.9-1.4c0.3-0.4,0.1-0.9-0.2-1.2l-9.2-6.1c-0.4-0.3-0.9-0.1-1.2,0.2L304.1,185.7z"/>
<path class="st17" d="M317.2,173.3l3.8,2.5c1.6,1,2.3,3.2,1.4,4.9l-3.8,7.5c-1,1.8-3.3,2.5-5.2,1.5c-0.1-0.1-0.2-0.1-0.4-0.2
	l-5.4-3.6c-1.8-1.1-2.4-3.4-1.3-5.2c0.1-0.1,0.2-0.2,0.3-0.4l5.5-6.5C313.3,172.5,315.5,172.2,317.2,173.3z"/>
<rect x="302.6" y="194.4" transform="matrix(0.5519 -0.8339 0.8339 0.5519 -30.1969 341.7941)" class="st119" width="0.7" height="9.2"/>
</svg>
